<svg width="137" height="29" viewBox="0 0 137 29" fill="none" xmlns="http://www.w3.org/2000/svg">
<path d="M12.3324 10.2794C12.3324 10.2794 10.7392 10.1195 10.7392 11.5409V17.8453H21.2604V19.7375C21.2604 19.7375 21.293 20.6822 20.304 20.6822H10.7392V28.8788H22.2169C22.2169 28.8788 29.1669 27.8069 29.2291 20.6822V10.2794H12.3324ZM28.9093 0.190552H8.18963C0.697748 1.95544 0.537842 8.10292 0.537842 8.10292V28.8818H8.50944V9.96553C8.50944 8.35759 10.1026 8.07331 10.1026 8.07331H28.9122V0.190552H28.9093ZM49.8273 20.3594C49.4838 20.5904 49.2262 20.7592 49.0455 20.8658C48.4 21.2655 47.787 21.5735 47.2155 21.8193C46.3893 22.1569 45.655 22.3257 44.9946 22.3257C42.7293 22.3257 40.8548 21.6327 39.3387 20.235C37.8225 18.8373 37.0733 17.0843 37.0733 14.9641C37.0733 12.8438 37.7485 11.153 39.1136 9.64572C40.4787 8.14142 42.1281 7.40112 44.0796 7.40112C44.891 7.40112 45.7586 7.54029 46.6588 7.83345C47.8285 8.20064 48.7731 8.75439 49.5253 9.47693L48.2194 10.922C47.6656 10.386 46.946 9.9833 46.1051 9.73752C45.4743 9.55392 44.7844 9.46212 44.0204 9.46212C42.6552 9.46212 41.5004 10.0129 40.5854 11.1056C39.6703 12.2131 39.2054 13.519 39.2054 15.0559C39.2054 16.5927 39.7296 17.8216 40.7808 18.8225C41.832 19.8205 43.1675 20.3268 44.7873 20.3268C45.4625 20.3268 46.1524 20.1107 46.8572 19.6961C47.4435 19.2489 47.7426 19.0357 47.7574 19.018V15.8672H43.3778L44.0085 13.901H49.8303V20.3564L49.8273 20.3594ZM63.061 16.5157C63.061 18.0378 62.522 19.3585 61.4412 20.466C60.3604 21.5735 59.0248 22.1421 57.4347 22.1421C55.9629 22.1421 54.6748 21.5883 53.5644 20.4986C52.4539 19.4089 51.915 18.0852 51.915 16.5335C51.915 14.9818 52.4421 13.6759 53.4903 12.5359C54.5386 11.3988 55.8297 10.845 57.3458 10.845C59.0278 10.845 60.3929 11.384 61.456 12.4737C62.522 13.5338 63.061 14.8871 63.061 16.5157ZM61.0029 16.5483C61.0029 15.5178 60.6594 14.6413 59.9695 13.9365C59.2795 13.214 58.4237 12.8616 57.4051 12.8616C56.4456 12.8616 55.6343 13.2318 54.9591 13.9691C54.2839 14.7064 53.9523 15.5504 53.9523 16.5039C53.9523 17.5048 54.2958 18.3487 54.9739 19.0565C55.6491 19.7642 56.49 20.1314 57.5087 20.1314C58.4533 20.1314 59.2647 19.779 59.9547 19.0713C60.6594 18.3635 61.0059 17.5196 61.0059 16.5513L61.0029 16.5483ZM76.114 16.5157C76.114 18.0378 75.5751 19.3585 74.4942 20.466C73.4134 21.5735 72.0779 22.1421 70.4877 22.1421C69.016 22.1421 67.7279 21.5883 66.6174 20.4986C65.507 19.4089 64.968 18.0852 64.968 16.5335C64.968 14.9818 65.4951 13.6759 66.5434 12.5359C67.5946 11.3988 68.8827 10.845 70.3989 10.845C72.0809 10.845 73.446 11.384 74.5091 12.4737C75.5751 13.5338 76.114 14.8871 76.114 16.5157ZM74.056 16.5483C74.056 15.5178 73.7125 14.6413 73.0225 13.9365C72.3326 13.214 71.4768 12.8616 70.4581 12.8616C69.4987 12.8616 68.6873 13.2318 68.0121 13.9691C67.337 14.7064 67.0053 15.5504 67.0053 16.5039C67.0053 17.5048 67.3488 18.3487 68.0269 19.0565C68.7021 19.7642 69.5431 20.1314 70.5618 20.1314C71.5064 20.1314 72.3177 19.779 73.0077 19.0713C73.7125 18.3635 74.059 17.5196 74.059 16.5513L74.056 16.5483ZM88.1899 21.8341L86.3006 22.1273V20.2972L85.8949 20.7592C85.5366 21.0938 85.1339 21.3721 84.6956 21.5883C84.0501 21.8844 83.3512 22.0384 82.6406 22.0355C81.1688 22.0355 79.9103 21.4965 78.8887 20.4068C77.8671 19.3141 77.3577 18.026 77.3577 16.5187C77.3577 15.0114 77.8671 13.6286 78.8739 12.5211C79.8807 11.4136 81.1096 10.8598 82.5784 10.8598C83.4194 10.8598 84.1537 10.999 84.7697 11.2744C85.205 11.4758 85.581 11.7363 85.8949 12.0591C86.0015 12.1983 86.1052 12.3493 86.2118 12.4885V7.69428L88.2225 7.40112L88.1928 21.8341H88.1899ZM86.422 16.6549C86.422 15.58 86.0608 14.6709 85.3264 13.9336C84.592 13.1785 83.7658 12.8113 82.8212 12.8113C81.77 12.8113 80.9319 13.1636 80.2864 13.8714C79.6853 14.5465 79.3714 15.3757 79.3714 16.347C79.3714 17.4367 79.6853 18.3428 80.316 19.0505C80.9467 19.7583 81.7403 20.1107 82.7175 20.1107C83.6947 20.1107 84.518 19.7879 85.2672 19.1275C86.0312 18.4494 86.422 17.6203 86.422 16.652V16.6549ZM98.7999 9.6931H93.1736V13.519H97.5384V15.4852H93.1736V21.8163L90.9823 22.1391V7.70908H98.3646L98.7999 9.6931ZM103.316 8.5708L101.965 10.2765L100.674 8.5708L102.039 6.87994L103.316 8.5708ZM102.91 21.8341L100.899 22.1095V11.4284L102.91 11.1204V21.8341ZM111.986 11.0138L111.042 13.1962C110.917 13.1785 110.793 13.1666 110.666 13.1666C110.47 13.1666 110.275 13.1814 110.079 13.211C109.884 13.2406 109.674 13.3176 109.448 13.4272C109.028 13.6108 108.667 14.0106 108.353 14.6117C108.003 15.2928 107.823 16.0449 107.826 16.8089V21.8193L105.815 22.1421V11.4284L107.675 11.0908V13.3206C107.915 12.9356 108.169 12.5536 108.409 12.1539C108.753 11.7541 109.158 11.4609 109.608 11.2922C109.848 11.2004 110.284 11.1234 110.944 11.0612C111.575 11.0168 111.936 10.9842 111.98 11.0168L111.986 11.0138ZM126.958 21.8341L124.947 22.1273V14.7953C124.947 14.1172 124.796 13.6256 124.497 13.3206C124.198 13.0126 123.748 12.8586 123.162 12.8586C122.457 12.8586 121.915 13.1518 121.557 13.7352C121.317 14.1349 121.181 14.5643 121.181 14.9937V21.8163L119.17 22.1865V14.8397C119.17 14.1941 119.019 13.7026 118.735 13.365C118.436 13.0274 118.045 12.8557 117.536 12.8557H117.34C116.635 12.8557 116.123 13.1488 115.809 13.747C115.569 14.1941 115.451 14.7597 115.451 15.4527V21.8163L113.366 22.1865V11.4284L115.241 11.1056V12.4737C115.451 12.1509 115.661 11.8903 115.857 11.7067C116.395 11.2004 117.026 10.9516 117.731 10.9516C118.528 10.9516 119.111 11.076 119.517 11.3366C119.86 11.5527 120.192 11.9821 120.523 12.5951C121.213 11.5054 122.188 10.9516 123.479 10.9516C124.77 10.9516 125.626 11.3366 126.224 12.1213C126.718 12.7668 126.958 13.7204 126.958 14.9641V21.8341ZM136.144 18.5916C136.144 19.5747 135.8 20.389 135.11 21.0198C134.42 21.6653 133.55 21.9733 132.499 21.9733C131.702 21.9733 130.997 21.7897 130.352 21.4195C129.706 21.0523 129.226 20.6348 128.913 20.1432L130.322 18.8847C130.426 19.0387 130.518 19.1601 130.606 19.2519C131.133 19.7909 131.761 20.0662 132.496 20.0662C133.005 20.0662 133.411 19.9271 133.695 19.6665C133.994 19.4059 134.13 19.0357 134.13 18.559C134.13 18.023 133.787 17.6529 133.097 17.4515C131.732 17.0369 130.994 16.8059 130.891 16.7586C130.26 16.4358 129.81 16.0982 129.526 15.7133C129.212 15.2661 129.046 14.6828 129.046 13.9306C129.046 13.0067 129.389 12.2397 130.067 11.6268C130.743 11.0108 131.551 10.7206 132.481 10.7206C133.189 10.7206 133.846 10.8746 134.447 11.1974C135.048 11.5202 135.481 11.8577 135.738 12.2575L134.539 13.5634C134.358 13.3828 134.163 13.2199 133.955 13.0718C133.476 12.7343 133.011 12.5655 132.576 12.5655C132.14 12.5655 131.809 12.6573 131.539 12.8409C131.222 13.0718 131.059 13.4094 131.059 13.8566C131.059 14.3037 131.21 14.6087 131.524 14.8101C131.794 14.9789 132.365 15.1625 133.266 15.3638C134.166 15.58 134.856 15.9472 135.35 16.4713C135.907 17.0251 136.147 17.715 136.147 18.5916H136.144Z" fill="#505050"/>
</svg>
