<svg width="42" height="46" viewBox="0 0 42 46" fill="none" xmlns="http://www.w3.org/2000/svg">
<path d="M35.1832 19.4981C35.178 19.5233 35.1727 19.5484 35.1674 19.5736C34.9592 20.557 33.5451 20.5181 33.3981 19.5237C33.1294 17.7062 32.4762 15.9158 31.4127 14.2727C27.9607 8.93943 19.405 3.95308 13.1907 5.33669C12.5271 5.48445 12.3251 6.33134 12.8411 6.77387C13.5292 7.36377 14.1406 8.0673 14.6468 8.87763C16.3086 11.5376 16.4265 14.7575 15.2331 17.4505C14.7355 18.5732 13.0932 18.4622 12.7873 17.273C12.785 17.2644 12.7828 17.2557 12.7806 17.2471C12.6217 16.6159 12.5827 15.9831 12.6498 15.3729C12.6794 15.1038 12.3917 14.9134 12.1573 15.0487C8.89265 16.9328 7.43537 22.7302 8.30147 26.4178C8.36473 26.6871 8.44213 26.9494 8.53149 27.2049C8.64995 27.6938 8.84972 28.1726 9.13784 28.6218C9.14818 28.638 9.15858 28.654 9.169 28.6702C9.25826 28.8081 9.35039 28.943 9.44386 29.0765C8.37288 28.2547 7.40133 27.2981 6.55835 26.224C6.16668 25.725 5.36948 26.0295 5.41149 26.6626C5.48619 27.7899 5.64045 28.8704 5.87675 29.8764C7.92246 38.5865 16.6418 43.989 25.3518 41.9433C34.0619 39.8976 39.4644 31.1783 37.4187 22.4682C37.1824 21.4621 36.8395 20.4259 36.4044 19.383C36.1608 18.7989 35.3113 18.8782 35.1832 19.4981Z" fill="url(#paint0_linear_456_80283)"/>
<path d="M8.30175 26.4178C8.36501 26.6871 8.44241 26.9494 8.53177 27.2048C8.65023 27.6938 8.84998 28.1725 9.13811 28.6218C9.14846 28.638 9.15886 28.654 9.16926 28.6701C9.25852 28.808 9.35066 28.943 9.44412 29.0764C8.37314 28.2546 7.40159 27.298 6.55862 26.2239C6.16694 25.7249 5.36974 26.0295 5.41175 26.6625C5.48646 27.7898 5.64071 28.8703 5.87701 29.8763C7.92267 38.5865 16.642 43.989 25.352 41.9433C34.0621 39.8976 39.4647 31.1783 37.4189 22.4682C37.1826 21.4621 36.8397 20.4259 36.4047 19.383C36.161 18.7989 35.3114 18.8783 35.1833 19.4981C35.1781 19.5233 35.1728 19.5485 35.1675 19.5736C34.9593 20.5571 33.5452 20.5181 33.3982 19.5237C33.336 19.103 33.2522 18.6839 33.1485 18.2676L8.05618 24.161C8.05863 24.961 8.13937 25.7264 8.30175 26.4178Z" fill="url(#paint1_linear_456_80283)"/>
<path d="M8.30175 26.4178C8.36501 26.6871 8.44241 26.9494 8.53177 27.2048C8.65023 27.6938 8.84998 28.1725 9.13811 28.6218C9.14846 28.638 9.15886 28.654 9.16926 28.6701C9.25852 28.808 9.35066 28.943 9.44412 29.0764C8.37314 28.2546 7.40159 27.298 6.55862 26.2239C6.16694 25.7249 5.36974 26.0295 5.41175 26.6625C5.48646 27.7898 5.64071 28.8703 5.87701 29.8763C7.92267 38.5865 16.642 43.989 25.352 41.9433C34.0621 39.8976 39.4647 31.1783 37.4189 22.4682C37.1826 21.4621 36.8397 20.4259 36.4047 19.383C36.161 18.7989 35.3114 18.8783 35.1833 19.4981C35.1781 19.5233 35.1728 19.5485 35.1675 19.5736C34.9593 20.5571 33.5452 20.5181 33.3982 19.5237C33.336 19.103 33.2522 18.6839 33.1485 18.2676L8.05618 24.161C8.05863 24.961 8.13937 25.7264 8.30175 26.4178Z" fill="url(#paint2_linear_456_80283)"/>
<path d="M37.4187 22.4684C37.1823 21.4622 36.8395 20.426 36.4044 19.3831C36.1607 18.799 35.3111 18.8784 35.183 19.4983C35.1778 19.5235 35.1726 19.5486 35.1672 19.5737C34.959 20.5572 33.5449 20.5183 33.3979 19.5238C33.1292 17.7064 32.4761 15.9159 31.4126 14.2728C27.9606 8.93956 19.4049 3.95321 13.1907 5.33682C12.5271 5.48458 12.325 6.33147 12.8411 6.77407C13.5291 7.36397 14.1405 8.06751 14.6468 8.87783C16.3085 11.5378 16.4264 14.7577 15.233 17.4508C14.9852 18.0098 14.4536 18.2627 13.9445 18.2292L19.5849 42.2441C21.4579 42.4849 23.405 42.4007 25.3518 41.9435C34.0618 39.8977 39.4644 31.1784 37.4187 22.4684Z" fill="url(#paint3_linear_456_80283)"/>
<path d="M37.6373 28.7975L24.977 20.9531L18.0461 38.4551L24.0742 42.1901C24.4997 42.1252 24.9258 42.0435 25.3521 41.9434C31.9197 40.4009 36.6059 35.0637 37.6373 28.7975Z" fill="url(#paint4_linear_456_80283)"/>
<path d="M30.2693 26.985C30.2664 26.9991 30.2635 27.0131 30.2605 27.0272C30.1443 27.5761 29.355 27.5544 29.2729 26.9993C29.1228 25.9848 28.7583 24.9854 28.1646 24.0682C26.2376 21.0911 21.4618 18.3077 17.9929 19.08C17.6224 19.1625 17.5097 19.6352 17.7978 19.8823C18.1819 20.2116 18.5232 20.6043 18.8058 21.0566C19.7334 22.5415 19.7992 24.3388 19.133 25.8421C18.8553 26.4689 17.9385 26.4068 17.7677 25.743C17.7665 25.7381 17.7653 25.7334 17.764 25.7285C17.6753 25.3761 17.6536 25.0229 17.691 24.6823C17.7076 24.5321 17.5469 24.4258 17.4161 24.5013C15.5938 25.5531 14.7803 28.7892 15.2638 30.8476C15.2991 30.998 15.3423 31.1444 15.3922 31.287C15.4583 31.5599 15.5698 31.8271 15.7306 32.0779C15.7364 32.0868 15.7422 32.0959 15.748 32.1049C15.7978 32.1819 15.8493 32.2571 15.9014 32.3317C15.3035 31.873 14.7613 31.3389 14.2906 30.7395C14.072 30.4608 13.627 30.6309 13.6504 30.9842C13.6921 31.6136 13.7783 32.2166 13.9102 32.7782C15.0521 37.6403 19.9193 40.656 24.7813 39.5141C29.6434 38.3721 32.6591 33.505 31.5172 28.6429C31.3853 28.0812 31.1938 27.5028 30.951 26.9207C30.8151 26.5947 30.3408 26.639 30.2693 26.985Z" fill="url(#paint5_linear_456_80283)"/>
<path d="M31.5172 28.6429C31.3853 28.0813 31.1939 27.5028 30.951 26.9207C30.815 26.5947 30.3408 26.639 30.2693 26.985C30.2663 26.9991 30.2635 27.0131 30.2604 27.0271C30.1443 27.5761 29.3549 27.5544 29.2728 26.9993C29.1228 25.9847 28.7582 24.9854 28.1645 24.0682C26.2376 21.0911 21.4617 18.3076 17.9929 19.08C17.6224 19.1624 17.5097 19.6352 17.7978 19.8822C18.1818 20.2116 18.5231 20.6042 18.8057 21.0566C19.7333 22.5414 19.7991 24.3388 19.133 25.8421C18.9947 26.1541 18.6979 26.2953 18.4138 26.2766L21.5622 39.6819C22.6078 39.8162 23.6947 39.7693 24.7814 39.5141C29.6434 38.3721 32.6591 33.5049 31.5172 28.6429Z" fill="url(#paint6_linear_456_80283)"/>
<path d="M15.2635 30.8475C15.2988 30.9978 15.342 31.1442 15.3919 31.2868C15.458 31.5598 15.5695 31.827 15.7303 32.0778C15.7361 32.0867 15.7419 32.0958 15.7477 32.1048C15.7975 32.1818 15.8489 32.257 15.9011 32.3316C15.3032 31.8729 14.7609 31.3388 14.2903 30.7393C14.0717 30.4607 13.6267 30.6308 13.6501 30.9841C13.6918 31.6134 13.778 32.2165 13.9099 32.7781C15.0518 37.6402 19.919 40.6559 24.781 39.5139C29.6431 38.372 32.6588 33.5048 31.5169 28.6428C31.385 28.0811 31.1935 27.5027 30.9507 26.9206C30.8147 26.5945 30.3404 26.6389 30.2689 26.9849C30.266 26.999 30.2631 27.013 30.2601 27.027C30.1439 27.5759 29.3546 27.5542 29.2725 26.9992C29.2377 26.7643 29.191 26.5304 29.1331 26.298L15.1264 29.5877C15.1278 30.0343 15.1728 30.4616 15.2635 30.8475Z" fill="url(#paint7_linear_456_80283)"/>
<path d="M15.2635 30.8475C15.2988 30.9978 15.342 31.1442 15.3919 31.2868C15.458 31.5598 15.5695 31.827 15.7303 32.0778C15.7361 32.0867 15.7419 32.0958 15.7477 32.1048C15.7975 32.1818 15.8489 32.257 15.9011 32.3316C15.3032 31.8729 14.7609 31.3388 14.2903 30.7393C14.0717 30.4607 13.6267 30.6308 13.6501 30.9841C13.6918 31.6134 13.778 32.2165 13.9099 32.7781C15.0518 37.6402 19.919 40.6559 24.781 39.5139C29.6431 38.372 32.6588 33.5048 31.5169 28.6428C31.385 28.0811 31.1935 27.5027 30.9507 26.9206C30.8147 26.5945 30.3404 26.6389 30.2689 26.9849C30.266 26.999 30.2631 27.013 30.2601 27.027C30.1439 27.5759 29.3546 27.5542 29.2725 26.9992C29.2377 26.7643 29.191 26.5304 29.1331 26.298L15.1264 29.5877C15.1278 30.0343 15.1728 30.4616 15.2635 30.8475Z" fill="url(#paint8_linear_456_80283)"/>
<path d="M5.55949 20.9507C6.76899 20.9163 7.40978 19.5136 6.69451 18.5377C6.15995 17.8083 5.98812 16.8339 6.32157 15.9207C6.32214 15.9192 6.32271 15.9176 6.3232 15.9161C6.40767 15.686 6.23985 15.4424 5.99473 15.4446C4.86214 15.455 3.80238 16.1568 3.39091 17.2836C2.86069 18.7357 3.60802 20.3427 5.06012 20.873C5.22272 20.9322 5.39043 20.9555 5.55949 20.9507Z" fill="url(#paint9_linear_456_80283)"/>
<path d="M5.55949 20.9507C6.76899 20.9163 7.40978 19.5136 6.69451 18.5377C6.15995 17.8083 5.98812 16.8339 6.32157 15.9207C6.32214 15.9192 6.32271 15.9176 6.3232 15.9161C6.40767 15.686 6.23985 15.4424 5.99473 15.4446C4.86214 15.455 3.80238 16.1568 3.39091 17.2836C2.86069 18.7357 3.60802 20.3427 5.06012 20.873C5.22272 20.9322 5.39043 20.9555 5.55949 20.9507Z" fill="url(#paint10_linear_456_80283)"/>
<path d="M5.55949 20.9507C6.76899 20.9163 7.40978 19.5136 6.69451 18.5377C6.15995 17.8083 5.98812 16.8339 6.32157 15.9207C6.32214 15.9192 6.32271 15.9176 6.3232 15.9161C6.40767 15.686 6.23985 15.4424 5.99473 15.4446C4.86214 15.455 3.80238 16.1568 3.39091 17.2836C2.86069 18.7357 3.60802 20.3427 5.06012 20.873C5.22272 20.9322 5.39043 20.9555 5.55949 20.9507Z" fill="url(#paint11_linear_456_80283)"/>
<defs>
<linearGradient id="paint0_linear_456_80283" x1="11.4259" y1="19.361" x2="30.4746" y2="31.1637" gradientUnits="userSpaceOnUse">
<stop stop-color="#FFA1AE"/>
<stop offset="1" stop-color="#FF4565"/>
</linearGradient>
<linearGradient id="paint1_linear_456_80283" x1="26.4797" y1="30.9572" x2="33.5006" y2="36.2863" gradientUnits="userSpaceOnUse">
<stop stop-color="#FE0364" stop-opacity="0"/>
<stop offset="0.2343" stop-color="#F90362" stop-opacity="0.234"/>
<stop offset="0.5173" stop-color="#EA035B" stop-opacity="0.517"/>
<stop offset="0.8243" stop-color="#D20250" stop-opacity="0.824"/>
<stop offset="1" stop-color="#C00148"/>
</linearGradient>
<linearGradient id="paint2_linear_456_80283" x1="22.4077" y1="31.6332" x2="23.9378" y2="42.5925" gradientUnits="userSpaceOnUse">
<stop stop-color="#FE0364" stop-opacity="0"/>
<stop offset="0.2343" stop-color="#F90362" stop-opacity="0.234"/>
<stop offset="0.5173" stop-color="#EA035B" stop-opacity="0.517"/>
<stop offset="0.8243" stop-color="#D20250" stop-opacity="0.824"/>
<stop offset="1" stop-color="#C00148"/>
</linearGradient>
<linearGradient id="paint3_linear_456_80283" x1="24.4081" y1="20.5368" x2="33.146" y2="13.7592" gradientUnits="userSpaceOnUse">
<stop stop-color="#FE0364" stop-opacity="0"/>
<stop offset="0.2343" stop-color="#F90362" stop-opacity="0.234"/>
<stop offset="0.5173" stop-color="#EA035B" stop-opacity="0.517"/>
<stop offset="0.8243" stop-color="#D20250" stop-opacity="0.824"/>
<stop offset="1" stop-color="#C00148"/>
</linearGradient>
<linearGradient id="paint4_linear_456_80283" x1="36.647" y1="36.7798" x2="22.5911" y2="30.7404" gradientUnits="userSpaceOnUse">
<stop stop-color="#FE0364" stop-opacity="0"/>
<stop offset="0.2343" stop-color="#F90362" stop-opacity="0.234"/>
<stop offset="0.5173" stop-color="#EA035B" stop-opacity="0.517"/>
<stop offset="0.8243" stop-color="#D20250" stop-opacity="0.824"/>
<stop offset="1" stop-color="#C00148"/>
</linearGradient>
<linearGradient id="paint5_linear_456_80283" x1="18.0791" y1="27.2204" x2="27.0933" y2="33.7845" gradientUnits="userSpaceOnUse">
<stop stop-color="#FEF0AE"/>
<stop offset="1" stop-color="#FAC600"/>
</linearGradient>
<linearGradient id="paint6_linear_456_80283" x1="25.9936" y1="26.6562" x2="28.1933" y2="25.2605" gradientUnits="userSpaceOnUse">
<stop stop-color="#FE9738" stop-opacity="0"/>
<stop offset="1" stop-color="#FE9738"/>
</linearGradient>
<linearGradient id="paint7_linear_456_80283" x1="21.3125" y1="35.7278" x2="20.2188" y2="39.0251" gradientUnits="userSpaceOnUse">
<stop stop-color="#FE9738" stop-opacity="0"/>
<stop offset="1" stop-color="#FE9738"/>
</linearGradient>
<linearGradient id="paint8_linear_456_80283" x1="25.9339" y1="34.9493" x2="28.0156" y2="37.574" gradientUnits="userSpaceOnUse">
<stop stop-color="#FE9738" stop-opacity="0"/>
<stop offset="1" stop-color="#FE9738"/>
</linearGradient>
<linearGradient id="paint9_linear_456_80283" x1="3.73462" y1="17.2433" x2="7.59912" y2="19.1929" gradientUnits="userSpaceOnUse">
<stop stop-color="#FFA1AE"/>
<stop offset="1" stop-color="#FF4565"/>
</linearGradient>
<linearGradient id="paint10_linear_456_80283" x1="5.07072" y1="19.0682" x2="4.78805" y2="21.1401" gradientUnits="userSpaceOnUse">
<stop stop-color="#FE0364" stop-opacity="0"/>
<stop offset="0.2343" stop-color="#F90362" stop-opacity="0.234"/>
<stop offset="0.5173" stop-color="#EA035B" stop-opacity="0.517"/>
<stop offset="0.8243" stop-color="#D20250" stop-opacity="0.824"/>
<stop offset="1" stop-color="#C00148"/>
</linearGradient>
<linearGradient id="paint11_linear_456_80283" x1="4.83427" y1="18.1455" x2="7.36865" y2="18.292" gradientUnits="userSpaceOnUse">
<stop stop-color="#FE0364" stop-opacity="0"/>
<stop offset="0.2343" stop-color="#F90362" stop-opacity="0.234"/>
<stop offset="0.5173" stop-color="#EA035B" stop-opacity="0.517"/>
<stop offset="0.8243" stop-color="#D20250" stop-opacity="0.824"/>
<stop offset="1" stop-color="#C00148"/>
</linearGradient>
</defs>
</svg>
