<svg width="54" height="54" viewBox="0 0 54 54" fill="none" xmlns="http://www.w3.org/2000/svg">
<circle cx="27" cy="27" r="27" fill="#2B2B2B"/>
<g filter="url(#filter0_d_401_41927)">
<g clip-path="url(#clip0_401_41927)">
<path d="M40.7532 24.0213C40.1301 23.4186 39.5051 22.8113 38.8782 22.1996C38.8614 21.3531 38.8395 20.5063 38.8125 19.659C38.7768 18.5252 38.2852 17.4436 37.4461 16.6033C36.6071 15.7631 35.5237 15.2762 34.3887 15.2404C33.5403 15.2143 32.6918 15.1924 31.8434 15.1748C31.2317 14.5525 30.6241 13.9309 30.0206 13.3098C29.2102 12.476 28.1561 12.0102 27.0352 12.0107C25.9143 12.0113 24.8602 12.4795 24.051 13.3092C23.4471 13.9314 22.8387 14.5547 22.2258 15.1789C21.3778 15.1961 20.5297 15.218 19.6817 15.2445C17.345 15.3242 15.3346 17.3322 15.2549 19.6625C15.228 20.5098 15.2059 21.3566 15.1887 22.2031C14.5637 22.8145 13.9397 23.4215 13.3167 24.0242C12.4858 24.8322 12.0182 25.8869 12.0188 27.0002C12.0194 28.1135 12.4829 29.1682 13.3172 29.9791C13.9399 30.5814 14.5637 31.1879 15.1887 31.7984C15.2063 32.6457 15.2284 33.4932 15.2549 34.3408C15.2901 35.4764 15.7823 36.5551 16.6202 37.3965C17.4581 38.2379 18.545 38.7236 19.6817 38.7588C20.5301 38.7857 21.3786 38.8078 22.227 38.825C22.8387 39.4473 23.4461 40.0688 24.0493 40.6895C24.8596 41.5227 25.9149 41.9885 27.0376 41.9879C28.1602 41.9873 29.2126 41.5232 30.0258 40.69C30.6293 40.0682 31.2372 39.4455 31.8493 38.8221C32.6973 38.8045 33.5454 38.7824 34.3934 38.7559C36.7295 38.6768 38.7405 36.6688 38.8208 34.3379C38.8473 33.4914 38.8692 32.6449 38.8864 31.7984C39.5114 31.1871 40.1354 30.5799 40.7584 29.9768C41.5899 29.1693 42.0569 28.1158 42.0569 26.9984C42.0569 25.8811 41.5858 24.8322 40.7532 24.0213ZM34.4948 25.1C31.9647 27.7291 29.3942 30.4168 26.8665 33.0828C26.661 33.3005 26.4132 33.474 26.1384 33.5927C25.8635 33.7114 25.5674 33.7727 25.268 33.773H25.2581C24.9594 33.7707 24.6642 33.7088 24.3899 33.5909C24.1155 33.4729 23.8674 33.3014 23.6602 33.0863C22.309 31.691 20.9534 30.3004 19.5932 28.9145C19.3875 28.7077 19.2251 28.4618 19.1158 28.1914C19.0064 27.921 18.9522 27.6314 18.9563 27.3397C18.9605 27.0481 19.0229 26.7602 19.1399 26.493C19.2569 26.2258 19.4262 25.9846 19.6377 25.7838C20.0639 25.372 20.6354 25.1451 21.228 25.1526C21.8205 25.16 22.3862 25.4012 22.8018 25.8236C23.6096 26.6518 24.4188 27.4824 25.2293 28.3156C27.2362 26.2127 29.253 24.0969 31.2381 22.0145C32.0807 21.1279 33.4864 21.1133 34.3899 21.9688C35.2934 22.8242 35.3438 24.2182 34.4948 25.1Z" fill="url(#paint0_linear_401_41927)"/>
</g>
</g>
<defs>
<filter id="filter0_d_401_41927" x="8" y="9" width="38" height="38" filterUnits="userSpaceOnUse" color-interpolation-filters="sRGB">
<feFlood flood-opacity="0" result="BackgroundImageFix"/>
<feColorMatrix in="SourceAlpha" type="matrix" values="0 0 0 0 0 0 0 0 0 0 0 0 0 0 0 0 0 0 127 0" result="hardAlpha"/>
<feOffset dy="1"/>
<feGaussianBlur stdDeviation="2"/>
<feComposite in2="hardAlpha" operator="out"/>
<feColorMatrix type="matrix" values="0 0 0 0 0 0 0 0 0 0 0 0 0 0 0 0 0 0 0.25 0"/>
<feBlend mode="normal" in2="BackgroundImageFix" result="effect1_dropShadow_401_41927"/>
<feBlend mode="normal" in="SourceGraphic" in2="effect1_dropShadow_401_41927" result="shape"/>
</filter>
<linearGradient id="paint0_linear_401_41927" x1="12.0188" y1="27.0002" x2="42.0528" y2="27.0002" gradientUnits="userSpaceOnUse">
<stop stop-color="#00CE44"/>
<stop offset="0.6" stop-color="#43FF81"/>
<stop offset="1" stop-color="#81FFAA"/>
</linearGradient>
<clipPath id="clip0_401_41927">
<rect width="30" height="30" fill="white" transform="translate(12 12)"/>
</clipPath>
</defs>
</svg>
