<svg width="90" height="88" viewBox="0 0 90 88" fill="none" xmlns="http://www.w3.org/2000/svg">
<g clip-path="url(#clip0_3050_3187)">
<g filter="url(#filter0_d_3050_3187)">
<path d="M72.9583 -0.0634766H17.9419C8.29192 -0.0634766 0.469086 7.7862 0.469086 17.4693V70.1651C0.469086 79.8482 8.29192 87.6978 17.9419 87.6978H72.9583C82.6082 87.6978 90.4311 79.8482 90.4311 70.1651V17.4693C90.4311 7.7862 82.6082 -0.0634766 72.9583 -0.0634766Z" fill="black"/>
</g>
<path d="M48.4625 39.049L48.7944 38.488C48.6646 38.6633 48.5548 38.8512 48.4625 39.049Z" fill="#BBF246"/>
<path d="M73.9341 21.1906C73.9341 21.7165 73.8568 22.2249 73.712 22.7032C73.702 22.7358 73.6871 22.7633 73.6671 22.7884L72.9883 23.6148L71.8976 24.9371L71.2063 25.781C71.2063 25.781 71.2038 25.7835 71.2013 25.7835L56.4364 43.727C56.3915 43.7821 56.3266 43.8121 56.2567 43.8121H50.4017C50.3692 43.8121 50.3368 43.8071 50.3068 43.7946C49.0315 43.2712 48.1305 42.014 48.1305 40.5465C48.1305 40.4238 48.1355 40.3011 48.148 40.1783C48.1904 39.7827 48.2952 39.4045 48.4575 39.0589C48.4625 39.0489 48.4674 39.0414 48.4699 39.0339L48.7944 38.4854L55.6427 26.9555H55.6452L56.3266 25.8061C56.349 25.7259 56.369 25.6483 56.384 25.5707C56.6635 24.0981 55.5928 22.6456 54.1079 22.4803C53.6661 22.4302 53.2468 22.4954 52.8675 22.6456C52.5106 22.7834 52.1936 22.9962 51.9366 23.2717C51.8592 23.3493 51.7893 23.432 51.7244 23.5221C51.7219 23.5246 51.7194 23.5271 51.7194 23.5321L34.7108 43.732C34.6659 43.7846 34.601 43.8146 34.5312 43.8146H20.2779C17.4552 43.8146 15.1441 41.4956 15.1441 38.6632V23.3644C15.1441 23.3343 15.1491 23.3042 15.1591 23.2767C15.3063 22.881 15.4985 22.5079 15.7356 22.1623C15.7456 22.1498 15.7556 22.1372 15.7656 22.1247L17.0858 20.7924L22.7961 15.025H22.7986L23.717 14.0959L24.4558 13.3496C24.4558 13.3496 24.4708 13.3346 24.4807 13.327C25.3493 12.6283 26.4399 12.2427 27.553 12.2427H64.3829L64.3654 12.2777C64.4877 12.2627 64.615 12.2527 64.7398 12.2502C64.8047 12.2427 64.8696 12.2427 64.9344 12.2427H66.6515C66.6815 12.2427 66.7114 12.2477 66.7389 12.2577C66.9086 12.3203 67.0758 12.3929 67.2355 12.4731C67.2605 12.4856 67.2805 12.5006 67.3004 12.5207L69.6015 14.8422L71.5407 16.798L73.113 18.3883C73.1255 18.4008 73.138 18.4183 73.148 18.4333C73.6496 19.2322 73.9366 20.1814 73.9366 21.1931L73.9341 21.1906Z" fill="#BBF246"/>
<path d="M42.4402 48.5828L42.1083 49.1437C42.2381 48.9684 42.3479 48.7806 42.4402 48.5828Z" fill="#BBF246"/>
<path d="M16.966 66.4436C16.966 65.9177 17.0434 65.4093 17.1881 64.931C17.1981 64.8984 17.2131 64.8709 17.2331 64.8458L17.9119 64.0194L19.0026 62.6971L19.6939 61.8532C19.6939 61.8532 19.6964 61.8507 19.6989 61.8507L34.4638 43.9072C34.5087 43.8521 34.5736 43.8221 34.6435 43.8221H40.4985C40.5309 43.8221 40.5634 43.8271 40.5933 43.8396C41.8687 44.363 42.7696 45.6202 42.7696 47.0877C42.7696 47.2104 42.7646 47.3331 42.7522 47.4558C42.7097 47.8515 42.6049 48.2297 42.4427 48.5753C42.4377 48.5853 42.4327 48.5928 42.4302 48.6003L42.1058 49.1488L35.2574 60.6786H35.2549L34.5736 61.8281C34.5511 61.9083 34.5312 61.9859 34.5162 62.0635C34.2367 63.5361 35.3073 64.9886 36.7923 65.1539C37.2341 65.204 37.6533 65.1388 38.0327 64.9886C38.3896 64.8508 38.7066 64.638 38.9636 64.3625C39.041 64.2849 39.1109 64.2022 39.1758 64.1121C39.1783 64.1096 39.1807 64.1071 39.1807 64.102L56.1893 43.9022C56.2342 43.8496 56.2991 43.8196 56.369 43.8196H70.6223C73.445 43.8196 75.756 46.1386 75.756 48.971V64.2698C75.756 64.2999 75.7511 64.3299 75.7411 64.3575C75.5938 64.7532 75.4016 65.1263 75.1645 65.4719C75.1546 65.4844 75.1446 65.497 75.1346 65.5095L73.8144 66.8418L68.1041 72.6092H68.1016L67.1831 73.5383L66.4444 74.2846C66.4444 74.2846 66.4294 74.2996 66.4194 74.3071C65.5509 75.0058 64.4603 75.3915 63.3471 75.3915H26.5173L26.5348 75.3565C26.4125 75.3715 26.2852 75.3815 26.1604 75.384C26.0955 75.3915 26.0306 75.3915 25.9657 75.3915H24.2486C24.2187 75.3915 24.1887 75.3865 24.1613 75.3765C23.9916 75.3139 23.8244 75.2413 23.6646 75.1611C23.6397 75.1486 23.6197 75.1336 23.5997 75.1135L21.2987 72.792L19.3595 70.8362L17.7871 69.2459C17.7747 69.2334 17.7622 69.2159 17.7522 69.2008C17.2505 68.402 16.9635 67.4528 16.9635 66.4411L16.966 66.4436Z" fill="#BBF246"/>
</g>
<defs>
<filter id="filter0_d_3050_3187" x="-75.5309" y="-69.0635" width="241.962" height="239.761" filterUnits="userSpaceOnUse" color-interpolation-filters="sRGB">
<feFlood flood-opacity="0" result="BackgroundImageFix"/>
<feColorMatrix in="SourceAlpha" type="matrix" values="0 0 0 0 0 0 0 0 0 0 0 0 0 0 0 0 0 0 127 0" result="hardAlpha"/>
<feOffset dy="7"/>
<feGaussianBlur stdDeviation="38"/>
<feColorMatrix type="matrix" values="0 0 0 0 0 0 0 0 0 0 0 0 0 0 0 0 0 0 0.15 0"/>
<feBlend mode="normal" in2="BackgroundImageFix" result="effect1_dropShadow_3050_3187"/>
<feBlend mode="normal" in="SourceGraphic" in2="effect1_dropShadow_3050_3187" result="shape"/>
</filter>
<clipPath id="clip0_3050_3187">
<rect width="90" height="88" fill="white"/>
</clipPath>
</defs>
</svg>
