<svg width="380" height="145" viewBox="0 0 380 145" fill="none" xmlns="http://www.w3.org/2000/svg">
<g opacity="0.2">
<mask id="path-1-outside-1_456_80721" maskUnits="userSpaceOnUse" x="-0.658081" y="0" width="381" height="145" fill="black">
<rect fill="white" x="-0.658081" width="381" height="145"/>
<path d="M143.591 1.4C148.445 1.4 152.605 2.09333 156.071 3.48C159.538 4.81333 162.365 6.68 164.551 9.08C166.791 11.48 168.418 14.36 169.431 17.72C170.498 21.0267 171.031 24.6533 171.031 28.6C171.031 32.5467 170.498 36.2 169.431 39.56C168.418 42.8667 166.791 45.72 164.551 48.12C162.365 50.52 159.538 52.4133 156.071 53.8C152.605 55.1333 148.445 55.8 143.591 55.8C138.738 55.8 134.578 55.1333 131.111 53.8C127.645 52.4133 124.791 50.52 122.551 48.12C120.311 45.72 118.658 42.8667 117.591 39.56C116.578 36.2 116.071 32.5467 116.071 28.6C116.071 24.6533 116.578 21.0267 117.591 17.72C118.658 14.36 120.311 11.48 122.551 9.08C124.791 6.68 127.645 4.81333 131.111 3.48C134.578 2.09333 138.738 1.4 143.591 1.4ZM143.591 43.4C145.885 43.4 147.751 43 149.191 42.2C150.631 41.4 151.751 40.3333 152.551 39C153.351 37.6667 153.885 36.0933 154.151 34.28C154.471 32.4667 154.631 30.5733 154.631 28.6C154.631 26.5733 154.471 24.68 154.151 22.92C153.885 21.1067 153.351 19.5333 152.551 18.2C151.751 16.8667 150.631 15.8 149.191 15C147.751 14.2 145.885 13.8 143.591 13.8C141.298 13.8 139.431 14.2 137.991 15C136.551 15.8 135.431 16.8667 134.631 18.2C133.831 19.5333 133.271 21.1067 132.951 22.92C132.685 24.68 132.551 26.5733 132.551 28.6C132.551 30.5733 132.685 32.4667 132.951 34.28C133.271 36.0933 133.831 37.6667 134.631 39C135.431 40.3333 136.551 41.4 137.991 42.2C139.431 43 141.298 43.4 143.591 43.4ZM205.375 47.4C204.575 48.84 203.641 50.0667 202.575 51.08C201.508 52.04 200.335 52.8133 199.055 53.4C197.775 53.9867 196.415 54.4133 194.975 54.68C193.535 54.8933 192.041 55 190.495 55C187.508 55 185.028 54.68 183.055 54.04C181.081 53.3467 179.508 52.28 178.335 50.84C177.215 49.3467 176.415 47.4267 175.935 45.08C175.455 42.68 175.215 39.8 175.215 36.44V14.2H191.455V34.84C191.455 38.0933 191.775 40.44 192.415 41.88C193.108 43.2667 194.601 43.96 196.895 43.96C199.135 43.96 200.841 43.4 202.015 42.28C203.188 41.1067 203.775 39.24 203.775 36.68V14.2H219.935V54.2H207.215L205.375 47.4ZM253.786 26.76C250.266 26.76 247.492 27.5867 245.466 29.24C243.439 30.84 242.426 33.72 242.426 37.88V55H226.186V15H238.426L240.746 22.04C242.506 19.0533 244.719 17 247.386 15.88C250.052 14.7067 252.826 14.12 255.706 14.12C256.826 14.12 257.946 14.2533 259.066 14.52C260.239 14.7333 261.306 15.1067 262.266 15.64V29.64C261.306 28.6267 260.079 27.9067 258.586 27.48C257.092 27 255.492 26.76 253.786 26.76ZM16.1201 124.36C17.0268 126.707 18.6001 128.467 20.8401 129.64C23.0801 130.813 25.8001 131.4 29.0001 131.4C29.6401 131.4 30.4135 131.373 31.3202 131.32C32.2268 131.267 33.1068 131.133 33.9602 130.92C34.8135 130.707 35.5335 130.387 36.1202 129.96C36.7068 129.533 37.0001 128.947 37.0001 128.2C37.0001 127.24 36.1735 126.467 34.5202 125.88C32.8668 125.24 30.6801 124.547 27.9601 123.8C26.3601 123.32 24.6001 122.813 22.6802 122.28C20.8135 121.747 18.8935 121.16 16.9201 120.52C15.0001 119.88 13.1335 119.133 11.3201 118.28C9.50682 117.427 7.90682 116.467 6.52015 115.4C5.13348 114.28 4.01348 113.027 3.16015 111.64C2.30682 110.2 1.88015 108.573 1.88015 106.76C1.88015 103.453 2.68015 100.707 4.28015 98.52C5.93348 96.28 8.01348 94.4933 10.5201 93.16C13.0801 91.7733 15.9068 90.8133 19.0001 90.28C22.1468 89.6933 25.2135 89.4 28.2002 89.4C31.1868 89.4 34.0135 89.6933 36.6802 90.28C39.4002 90.8133 41.9068 91.6933 44.2001 92.92C46.4935 94.0933 48.5468 95.64 50.3602 97.56C52.1735 99.4267 53.6668 101.72 54.8402 104.44L40.1201 108.84C39.1068 106.28 37.5068 104.467 35.3201 103.4C33.1868 102.333 30.5202 101.8 27.3201 101.8C26.6802 101.8 25.8802 101.827 24.9201 101.88C24.0135 101.933 23.1335 102.067 22.2802 102.28C21.4268 102.493 20.6801 102.84 20.0401 103.32C19.4535 103.747 19.1601 104.333 19.1601 105.08C19.1601 106.253 20.1735 107.24 22.2001 108.04C24.2268 108.787 26.8402 109.613 30.0402 110.52C32.5468 111.213 35.2135 111.987 38.0402 112.84C40.8668 113.64 43.4802 114.653 45.8802 115.88C48.2801 117.053 50.2801 118.493 51.8802 120.2C53.4802 121.907 54.2802 123.987 54.2802 126.44C54.2802 129.693 53.4802 132.44 51.8802 134.68C50.2801 136.92 48.2268 138.707 45.7201 140.04C43.2135 141.373 40.3868 142.333 37.2402 142.92C34.1468 143.507 31.1068 143.8 28.1201 143.8C25.1868 143.8 22.3601 143.533 19.6401 143C16.9201 142.413 14.3868 141.533 12.0401 140.36C9.74682 139.133 7.66682 137.56 5.80015 135.64C3.98682 133.72 2.52015 131.427 1.40015 128.76L16.1201 124.36ZM59.462 123C59.462 116.173 61.382 111 65.222 107.48C69.062 103.96 74.3954 102.2 81.222 102.2C84.8487 102.2 88.0487 102.76 90.822 103.88C93.6487 105 95.9687 106.6 97.782 108.68C99.6487 110.707 100.982 113.16 101.782 116.04C102.582 118.92 102.795 122.147 102.422 125.72H74.342C74.4487 127.853 75.0087 129.56 76.022 130.84C77.0887 132.12 78.8754 132.76 81.382 132.76C83.5154 132.76 85.062 132.36 86.022 131.56C87.0354 130.707 87.7287 129.587 88.102 128.2L102.262 130.52C100.822 135.16 98.2087 138.547 94.422 140.68C90.6887 142.76 86.342 143.8 81.382 143.8C74.502 143.8 69.1154 142.04 65.222 138.52C61.382 135 59.462 129.827 59.462 123ZM88.102 118.76C88.0487 118.067 87.9154 117.4 87.702 116.76C87.4887 116.067 87.1154 115.48 86.582 115C86.0487 114.467 85.3554 114.04 84.502 113.72C83.6487 113.4 82.5554 113.24 81.222 113.24C78.822 113.24 77.142 113.773 76.182 114.84C75.222 115.907 74.6354 117.213 74.422 118.76H88.102ZM135.098 114.76C131.578 114.76 128.805 115.587 126.778 117.24C124.752 118.84 123.738 121.72 123.738 125.88V143H107.498V103H119.738L122.058 110.04C123.818 107.053 126.032 105 128.698 103.88C131.365 102.707 134.138 102.12 137.018 102.12C138.138 102.12 139.258 102.253 140.378 102.52C141.552 102.733 142.618 103.107 143.578 103.64V117.64C142.618 116.627 141.392 115.907 139.898 115.48C138.405 115 136.805 114.76 135.098 114.76ZM146.399 103H161.759L171.199 129.96L180.719 103H196.079L180.559 143H161.919L146.399 103ZM200.71 143V103H216.63V143H200.71ZM199.67 91.56C199.67 88.8933 200.523 86.9467 202.23 85.72C203.936 84.44 206.07 83.8 208.63 83.8C211.136 83.8 213.243 84.44 214.95 85.72C216.71 86.9467 217.59 88.8933 217.59 91.56C217.59 94.28 216.736 96.28 215.03 97.56C213.323 98.7867 211.19 99.4 208.63 99.4C206.123 99.4 203.99 98.76 202.23 97.48C200.523 96.2 199.67 94.2267 199.67 91.56ZM222.281 123C222.281 116.173 224.201 111 228.041 107.48C231.935 103.96 237.295 102.2 244.121 102.2C249.775 102.2 254.415 103.453 258.041 105.96C261.721 108.467 264.121 112.147 265.241 117L251.001 119C250.628 117.027 249.988 115.587 249.081 114.68C248.175 113.72 246.521 113.24 244.121 113.24C242.628 113.24 241.401 113.507 240.441 114.04C239.535 114.52 238.815 115.213 238.281 116.12C237.748 116.973 237.401 117.987 237.241 119.16C237.081 120.333 237.001 121.613 237.001 123C237.001 124.333 237.081 125.613 237.241 126.84C237.401 128.013 237.748 129.053 238.281 129.96C238.815 130.813 239.535 131.507 240.441 132.04C241.401 132.52 242.628 132.76 244.121 132.76C246.521 132.76 248.175 132.307 249.081 131.4C249.988 130.44 250.628 128.973 251.001 127L265.241 129C264.121 133.853 261.721 137.533 258.041 140.04C254.415 142.547 249.775 143.8 244.121 143.8C237.295 143.8 231.935 142.04 228.041 138.52C224.201 135 222.281 129.827 222.281 123ZM268.009 123C268.009 116.173 269.929 111 273.769 107.48C277.609 103.96 282.942 102.2 289.769 102.2C293.396 102.2 296.596 102.76 299.369 103.88C302.196 105 304.516 106.6 306.329 108.68C308.196 110.707 309.529 113.16 310.329 116.04C311.129 118.92 311.342 122.147 310.969 125.72H282.889C282.996 127.853 283.556 129.56 284.569 130.84C285.636 132.12 287.422 132.76 289.929 132.76C292.062 132.76 293.609 132.36 294.569 131.56C295.582 130.707 296.276 129.587 296.649 128.2L310.809 130.52C309.369 135.16 306.756 138.547 302.969 140.68C299.236 142.76 294.889 143.8 289.929 143.8C283.049 143.8 277.662 142.04 273.769 138.52C269.929 135 268.009 129.827 268.009 123ZM296.649 118.76C296.596 118.067 296.462 117.4 296.249 116.76C296.036 116.067 295.662 115.48 295.129 115C294.596 114.467 293.902 114.04 293.049 113.72C292.196 113.4 291.102 113.24 289.769 113.24C287.369 113.24 285.689 113.773 284.729 114.84C283.769 115.907 283.182 117.213 282.969 118.76H296.649ZM338.285 130.2C338.285 129.88 338.019 129.587 337.485 129.32C337.005 129 336.339 128.707 335.485 128.44C334.685 128.173 333.725 127.907 332.605 127.64C331.485 127.32 330.285 126.973 329.005 126.6C327.565 126.173 326.072 125.693 324.525 125.16C322.979 124.573 321.565 123.853 320.285 123C319.005 122.093 317.939 121.027 317.085 119.8C316.285 118.52 315.885 116.973 315.885 115.16C315.885 112.813 316.392 110.813 317.405 109.16C318.419 107.507 319.779 106.173 321.485 105.16C323.245 104.093 325.272 103.347 327.565 102.92C329.912 102.44 332.392 102.2 335.005 102.2C337.299 102.2 339.565 102.44 341.805 102.92C344.099 103.4 346.205 104.173 348.125 105.24C350.045 106.253 351.699 107.56 353.085 109.16C354.472 110.76 355.432 112.68 355.965 114.92L343.485 117.24C342.845 115.213 340.979 114.2 337.885 114.2C337.405 114.2 336.872 114.227 336.285 114.28C335.752 114.333 335.245 114.413 334.765 114.52C334.285 114.627 333.859 114.813 333.485 115.08C333.165 115.293 333.005 115.613 333.005 116.04C333.005 116.68 333.885 117.24 335.645 117.72C337.405 118.2 339.512 118.787 341.965 119.48C343.405 119.907 344.899 120.413 346.445 121C348.045 121.533 349.485 122.227 350.765 123.08C352.099 123.88 353.165 124.867 353.965 126.04C354.819 127.213 355.245 128.653 355.245 130.36C355.245 132.76 354.712 134.813 353.645 136.52C352.632 138.227 351.219 139.613 349.405 140.68C347.645 141.747 345.565 142.52 343.165 143C340.819 143.533 338.312 143.8 335.645 143.8C333.085 143.8 330.659 143.533 328.365 143C326.125 142.52 324.072 141.773 322.205 140.76C320.392 139.693 318.845 138.36 317.565 136.76C316.339 135.16 315.432 133.24 314.845 131L327.645 128.76C327.912 129.987 328.552 130.84 329.565 131.32C330.632 131.8 331.965 132.04 333.565 132.04C334.739 132.04 335.805 131.933 336.765 131.72C337.779 131.507 338.285 131 338.285 130.2ZM360.532 135.72C360.532 133.053 361.385 131.08 363.092 129.8C364.852 128.52 367.012 127.88 369.572 127.88C372.132 127.88 374.265 128.52 375.972 129.8C377.732 131.027 378.612 133 378.612 135.72C378.612 138.44 377.732 140.44 375.972 141.72C374.265 143 372.132 143.64 369.572 143.64C367.065 143.64 364.932 143 363.172 141.72C361.412 140.387 360.532 138.387 360.532 135.72ZM361.092 90.2H378.052L374.932 125.08H364.212L361.092 90.2Z"/>
</mask>
<path d="M156.071 3.48L155.7 4.40856L155.712 4.41334L156.071 3.48ZM164.551 9.08L163.812 9.75354L163.82 9.76232L164.551 9.08ZM169.431 17.72L168.474 18.0087L168.477 18.0179L168.48 18.027L169.431 17.72ZM169.431 39.56L168.478 39.2574L168.475 39.267L169.431 39.56ZM164.551 48.12L163.82 47.4376L163.812 47.4465L164.551 48.12ZM156.071 53.8L156.43 54.7334L156.443 54.7285L156.071 53.8ZM131.111 53.8L130.74 54.7286L130.752 54.7333L131.111 53.8ZM122.551 48.12L121.82 48.8023L122.551 48.12ZM117.591 39.56L116.634 39.8487L116.637 39.8579L116.64 39.867L117.591 39.56ZM117.591 17.72L116.638 17.4174L116.635 17.427L117.591 17.72ZM122.551 9.08L123.282 9.76232V9.76232L122.551 9.08ZM131.111 3.48L131.47 4.41342L131.483 4.40847L131.111 3.48ZM149.191 42.2L149.677 43.0742L149.191 42.2ZM152.551 39L153.409 39.5145L152.551 39ZM154.151 34.28L153.167 34.1062L153.164 34.1203L153.162 34.1345L154.151 34.28ZM154.151 22.92L153.162 23.0655L153.164 23.0822L153.168 23.0989L154.151 22.92ZM152.551 18.2L153.409 17.6855V17.6855L152.551 18.2ZM149.191 15L148.706 15.8742H148.706L149.191 15ZM137.991 15L138.477 15.8742L138.477 15.8742L137.991 15ZM134.631 18.2L135.489 18.7145L134.631 18.2ZM132.951 22.92L131.967 22.7462L131.964 22.7582L131.963 22.7702L132.951 22.92ZM132.951 34.28L131.962 34.4255L131.964 34.4397L131.967 34.4538L132.951 34.28ZM134.631 39L133.774 39.5145L134.631 39ZM143.591 1.4V2.4C148.354 2.4 152.381 3.08089 155.7 4.40847L156.071 3.48L156.443 2.55152C152.828 1.10577 148.536 0.399999 143.591 0.399999V1.4ZM156.071 3.48L155.712 4.41334C159.055 5.6989 161.744 7.48406 163.812 9.75349L164.551 9.08L165.291 8.40651C162.985 5.87594 160.021 3.92777 156.43 2.54665L156.071 3.48ZM164.551 9.08L163.82 9.76232C165.949 12.0426 167.502 14.7852 168.474 18.0087L169.431 17.72L170.389 17.4313C169.334 13.9348 167.634 10.9174 165.282 8.39768L164.551 9.08ZM169.431 17.72L168.48 18.027C169.51 21.222 170.031 24.7436 170.031 28.6H171.031H172.031C172.031 24.563 171.486 20.8313 170.383 17.413L169.431 17.72ZM171.031 28.6H170.031C170.031 32.4561 169.51 36.0062 168.478 39.2574L169.431 39.56L170.385 39.8626C171.486 36.3938 172.031 32.6372 172.031 28.6H171.031ZM169.431 39.56L168.475 39.267C167.504 42.4365 165.951 45.1546 163.82 47.4377L164.551 48.12L165.282 48.8023C167.632 46.2854 169.332 43.2969 170.387 39.853L169.431 39.56ZM164.551 48.12L163.812 47.4465C161.742 49.7192 159.047 51.5326 155.7 52.8715L156.071 53.8L156.443 54.7285C160.029 53.2941 162.988 51.3208 165.291 48.7935L164.551 48.12ZM156.071 53.8L155.712 52.8667C152.389 54.1447 148.358 54.8 143.591 54.8V55.8V56.8C148.532 56.8 152.82 56.122 156.43 54.7333L156.071 53.8ZM143.591 55.8V54.8C138.825 54.8 134.793 54.1447 131.47 52.8667L131.111 53.8L130.752 54.7333C134.363 56.122 138.651 56.8 143.591 56.8V55.8ZM131.111 53.8L131.483 52.8715C128.134 51.532 125.409 49.7163 123.282 47.4377L122.551 48.12L121.82 48.8023C124.174 51.3237 127.156 53.2947 130.74 54.7285L131.111 53.8ZM122.551 48.12L123.282 47.4377C121.148 45.1513 119.567 42.4282 118.543 39.253L117.591 39.56L116.64 39.867C117.749 43.3051 119.474 46.2887 121.82 48.8023L122.551 48.12ZM117.591 39.56L118.549 39.2713C117.567 36.0157 117.071 32.4609 117.071 28.6H116.071H115.071C115.071 32.6325 115.589 36.3843 116.634 39.8487L117.591 39.56ZM116.071 28.6H117.071C117.071 24.7389 117.567 21.2124 118.548 18.013L117.591 17.72L116.635 17.427C115.589 20.8409 115.071 24.5678 115.071 28.6H116.071ZM117.591 17.72L118.545 18.0226C119.57 14.7934 121.151 12.0459 123.282 9.76232L122.551 9.08L121.82 8.39768C119.472 10.9141 117.746 13.9266 116.638 17.4174L117.591 17.72ZM122.551 9.08L123.282 9.76232C125.406 7.48687 128.126 5.69946 131.47 4.41334L131.111 3.48L130.752 2.54665C127.163 3.9272 124.177 5.87313 121.82 8.39768L122.551 9.08ZM131.111 3.48L131.483 4.40847C134.802 3.08089 138.829 2.4 143.591 2.4V1.4V0.399999C138.647 0.399999 134.354 1.10577 130.74 2.55152L131.111 3.48ZM143.591 43.4V44.4C145.991 44.4 148.042 43.9828 149.677 43.0742L149.191 42.2L148.706 41.3258C147.461 42.0172 145.778 42.4 143.591 42.4V43.4ZM149.191 42.2L149.677 43.0742C151.261 42.1942 152.513 41.0073 153.409 39.5145L152.551 39L151.694 38.4855C150.99 39.6594 150.002 40.6058 148.706 41.3258L149.191 42.2ZM152.551 39L153.409 39.5145C154.288 38.0497 154.858 36.3464 155.141 34.4255L154.151 34.28L153.162 34.1345C152.911 35.8403 152.415 37.2836 151.694 38.4855L152.551 39ZM154.151 34.28L155.136 34.4538C155.467 32.5792 155.631 30.6275 155.631 28.6H154.631H153.631C153.631 30.5192 153.476 32.3542 153.167 34.1062L154.151 34.28ZM154.631 28.6H155.631C155.631 26.5211 155.467 24.5673 155.135 22.7411L154.151 22.92L153.168 23.0989C153.475 24.7927 153.631 26.6256 153.631 28.6H154.631ZM154.151 22.92L155.141 22.7745C154.858 20.8536 154.288 19.1503 153.409 17.6855L152.551 18.2L151.694 18.7145C152.415 19.9164 152.911 21.3597 153.162 23.0655L154.151 22.92ZM152.551 18.2L153.409 17.6855C152.513 16.1927 151.261 15.0058 149.677 14.1258L149.191 15L148.706 15.8742C150.002 16.5942 150.99 17.5406 151.694 18.7145L152.551 18.2ZM149.191 15L149.677 14.1258C148.042 13.2172 145.991 12.8 143.591 12.8V13.8V14.8C145.778 14.8 147.461 15.1828 148.706 15.8742L149.191 15ZM143.591 13.8V12.8C141.191 12.8 139.141 13.2172 137.506 14.1258L137.991 15L138.477 15.8742C139.722 15.1828 141.405 14.8 143.591 14.8V13.8ZM137.991 15L137.506 14.1258C135.922 15.0058 134.67 16.1927 133.774 17.6855L134.631 18.2L135.489 18.7145C136.193 17.5406 137.181 16.5942 138.477 15.8742L137.991 15ZM134.631 18.2L133.774 17.6855C132.901 19.141 132.304 20.8342 131.967 22.7462L132.951 22.92L133.936 23.0938C134.239 21.3791 134.762 19.9256 135.489 18.7145L134.631 18.2ZM132.951 22.92L131.963 22.7702C131.688 24.586 131.551 26.5299 131.551 28.6H132.551H133.551C133.551 26.6167 133.682 24.774 133.94 23.0698L132.951 22.92ZM132.551 28.6H131.551C131.551 30.6183 131.688 32.5605 131.962 34.4255L132.951 34.28L133.941 34.1345C133.682 32.3729 133.551 30.5283 133.551 28.6H132.551ZM132.951 34.28L131.967 34.4538C132.304 36.3658 132.901 38.059 133.774 39.5145L134.631 39L135.489 38.4855C134.762 37.2744 134.239 35.8209 133.936 34.1062L132.951 34.28ZM134.631 39L133.774 39.5145C134.67 41.0073 135.922 42.1942 137.506 43.0742L137.991 42.2L138.477 41.3258C137.181 40.6058 136.193 39.6594 135.489 38.4855L134.631 39ZM137.991 42.2L137.506 43.0742C139.141 43.9828 141.191 44.4 143.591 44.4V43.4V42.4C141.405 42.4 139.722 42.0172 138.477 41.3258L137.991 42.2ZM205.375 47.4L206.34 47.1388L205.696 44.7613L204.5 46.9144L205.375 47.4ZM202.575 51.08L203.243 51.8233L203.253 51.8143L203.263 51.805L202.575 51.08ZM199.055 53.4L198.638 52.4909L199.055 53.4ZM194.975 54.68L195.121 55.6692L195.139 55.6666L195.157 55.6633L194.975 54.68ZM183.055 54.04L182.723 54.9835L182.734 54.9875L182.746 54.9912L183.055 54.04ZM178.335 50.84L177.535 51.44L177.547 51.4561L177.559 51.4717L178.335 50.84ZM175.935 45.08L174.954 45.2761L174.955 45.2804L175.935 45.08ZM175.215 14.2V13.2H174.215V14.2H175.215ZM191.455 14.2H192.455V13.2H191.455V14.2ZM192.415 41.88L191.501 42.2861L191.51 42.3069L191.52 42.3272L192.415 41.88ZM202.015 42.28L202.705 43.0034L202.713 42.9953L202.722 42.9871L202.015 42.28ZM203.775 14.2V13.2H202.775V14.2H203.775ZM219.935 14.2H220.935V13.2H219.935V14.2ZM219.935 54.2V55.2H220.935V54.2H219.935ZM207.215 54.2L206.249 54.4612L206.449 55.2H207.215V54.2ZM205.375 47.4L204.5 46.9144C203.744 48.2761 202.871 49.4194 201.886 50.355L202.575 51.08L203.263 51.805C204.412 50.7139 205.405 49.4039 206.249 47.8856L205.375 47.4ZM202.575 51.08L201.906 50.3367C200.913 51.2303 199.824 51.9473 198.638 52.4909L199.055 53.4L199.471 54.3091C200.845 53.6794 202.103 52.8497 203.243 51.8233L202.575 51.08ZM199.055 53.4L198.638 52.4909C197.436 53.042 196.155 53.4444 194.792 53.6967L194.975 54.68L195.157 55.6633C196.674 55.3822 198.113 54.9314 199.471 54.3091L199.055 53.4ZM194.975 54.68L194.828 53.6908C193.439 53.8965 191.995 54 190.495 54V55V56C192.087 56 193.63 55.8902 195.121 55.6692L194.975 54.68ZM190.495 55V54C187.571 54 185.203 53.6857 183.363 53.0888L183.055 54.04L182.746 54.9912C184.852 55.6743 187.445 56 190.495 56V55ZM183.055 54.04L183.386 53.0965C181.564 52.4564 180.153 51.4881 179.11 50.2083L178.335 50.84L177.559 51.4717C178.863 53.0719 180.598 54.237 182.723 54.9835L183.055 54.04ZM178.335 50.84L179.135 50.24C178.125 48.8935 177.373 47.121 176.914 44.8796L175.935 45.08L174.955 45.2804C175.456 47.7323 176.304 49.7998 177.535 51.44L178.335 50.84ZM175.935 45.08L176.915 44.8839C176.452 42.5673 176.215 39.7566 176.215 36.44H175.215H174.215C174.215 39.8434 174.457 42.7927 174.954 45.2761L175.935 45.08ZM175.215 36.44H176.215V14.2H175.215H174.215V36.44H175.215ZM175.215 14.2V15.2H191.455V14.2V13.2H175.215V14.2ZM191.455 14.2H190.455V34.84H191.455H192.455V14.2H191.455ZM191.455 34.84H190.455C190.455 38.1157 190.77 40.6426 191.501 42.2861L192.415 41.88L193.328 41.4739C192.779 40.2374 192.455 38.071 192.455 34.84H191.455ZM192.415 41.88L191.52 42.3272C192.458 44.203 194.426 44.96 196.895 44.96V43.96V42.96C194.776 42.96 193.758 42.3304 193.309 41.4328L192.415 41.88ZM196.895 43.96V44.96C199.292 44.96 201.284 44.3593 202.705 43.0034L202.015 42.28L201.324 41.5566C200.398 42.4407 198.977 42.96 196.895 42.96V43.96ZM202.015 42.28L202.722 42.9871C204.163 41.5459 204.775 39.3646 204.775 36.68H203.775H202.775C202.775 39.1154 202.213 40.6674 201.307 41.5729L202.015 42.28ZM203.775 36.68H204.775V14.2H203.775H202.775V36.68H203.775ZM203.775 14.2V15.2H219.935V14.2V13.2H203.775V14.2ZM219.935 14.2H218.935V54.2H219.935H220.935V14.2H219.935ZM219.935 54.2V53.2H207.215V54.2V55.2H219.935V54.2ZM207.215 54.2L208.18 53.9388L206.34 47.1388L205.375 47.4L204.409 47.6612L206.249 54.4612L207.215 54.2ZM245.466 29.24L246.085 30.0249L246.092 30.0199L246.098 30.0149L245.466 29.24ZM242.426 55V56H243.426V55H242.426ZM226.186 55H225.186V56H226.186V55ZM226.186 15V14H225.186V15H226.186ZM238.426 15L239.376 14.687L239.149 14H238.426V15ZM240.746 22.04L239.796 22.353L240.487 24.4492L241.607 22.5477L240.746 22.04ZM247.386 15.88L247.773 16.802L247.781 16.7987L247.788 16.7953L247.386 15.88ZM259.066 14.52L258.834 15.4928L258.86 15.499L258.887 15.5039L259.066 14.52ZM262.266 15.64H263.266V15.0516L262.751 14.7658L262.266 15.64ZM262.266 29.64L261.54 30.3277L263.266 32.1496V29.64H262.266ZM258.586 27.48L258.28 28.432L258.295 28.437L258.311 28.4415L258.586 27.48ZM253.786 26.76V25.76C250.115 25.76 247.092 26.6227 244.834 28.4651L245.466 29.24L246.098 30.0149C247.893 28.5506 250.416 27.76 253.786 27.76V26.76ZM245.466 29.24L244.846 28.4551C242.463 30.3361 241.426 33.6004 241.426 37.88H242.426H243.426C243.426 33.8396 244.415 31.3438 246.085 30.0249L245.466 29.24ZM242.426 37.88H241.426V55H242.426H243.426V37.88H242.426ZM242.426 55V54H226.186V55V56H242.426V55ZM226.186 55H227.186V15H226.186H225.186V55H226.186ZM226.186 15V16H238.426V15V14H226.186V15ZM238.426 15L237.476 15.313L239.796 22.353L240.746 22.04L241.696 21.727L239.376 14.687L238.426 15ZM240.746 22.04L241.607 22.5477C243.28 19.7087 245.342 17.823 247.773 16.802L247.386 15.88L246.999 14.958C244.096 16.177 241.731 18.3979 239.884 21.5323L240.746 22.04ZM247.386 15.88L247.788 16.7953C250.33 15.6772 252.966 15.12 255.706 15.12V14.12V13.12C252.685 13.12 249.775 13.7362 246.983 14.9647L247.386 15.88ZM255.706 14.12V15.12C256.746 15.12 257.788 15.2437 258.834 15.4928L259.066 14.52L259.297 13.5472C258.104 13.263 256.906 13.12 255.706 13.12V14.12ZM259.066 14.52L258.887 15.5039C259.962 15.6993 260.924 16.0383 261.78 16.5142L262.266 15.64L262.751 14.7658C261.688 14.175 260.516 13.7673 259.245 13.5361L259.066 14.52ZM262.266 15.64H261.266V29.64H262.266H263.266V15.64H262.266ZM262.266 29.64L262.992 28.9523C261.895 27.7947 260.506 26.9887 258.86 26.5185L258.586 27.48L258.311 28.4415C259.652 28.8247 260.716 29.4587 261.54 30.3277L262.266 29.64ZM258.586 27.48L258.892 26.528C257.291 26.0135 255.587 25.76 253.786 25.76V26.76V27.76C255.398 27.76 256.894 27.9865 258.28 28.432L258.586 27.48ZM16.1201 124.36L17.0529 124L16.7197 123.137L15.8338 123.402L16.1201 124.36ZM20.8401 129.64L21.3042 128.754L20.8401 129.64ZM31.3202 131.32L31.2614 130.322L31.3202 131.32ZM33.9602 130.92L33.7176 129.95L33.9602 130.92ZM36.1202 129.96L36.7083 130.769L36.1202 129.96ZM34.5201 125.88L34.1592 126.813L34.1724 126.818L34.1857 126.822L34.5201 125.88ZM27.9601 123.8L27.6728 124.758L27.6841 124.761L27.6954 124.764L27.9601 123.8ZM22.6801 122.28L22.4054 123.242L22.4125 123.244L22.6801 122.28ZM16.9202 120.52L16.6039 121.469L16.6116 121.471L16.9202 120.52ZM11.3201 118.28L10.8944 119.185L11.3201 118.28ZM6.52015 115.4L5.89181 116.178L5.90104 116.185L5.91044 116.193L6.52015 115.4ZM3.16015 111.64L2.29986 112.15L2.30411 112.157L2.30849 112.164L3.16015 111.64ZM4.28015 98.52L3.47557 97.9261L3.47312 97.9295L4.28015 98.52ZM10.5201 93.16L10.9898 94.0429L10.9964 94.0393L10.5201 93.16ZM19.0001 90.28L19.1701 91.2655L19.1834 91.2631L19.0001 90.28ZM36.6802 90.28L36.4653 91.2566L36.4765 91.2591L36.4877 91.2613L36.6802 90.28ZM44.2001 92.92L43.7285 93.8018L43.7365 93.8061L43.7447 93.8102L44.2001 92.92ZM50.3602 97.56L49.6331 98.2467L49.6429 98.2568L50.3602 97.56ZM54.8401 104.44L55.1265 105.398L56.2036 105.076L55.7584 104.044L54.8401 104.44ZM40.1201 108.84L39.1903 109.208L39.5279 110.061L40.4065 109.798L40.1201 108.84ZM35.3201 103.4L34.8729 104.294L34.8817 104.299L35.3201 103.4ZM24.9202 101.88L24.8647 100.882L24.8614 100.882L24.9202 101.88ZM20.0401 103.32L20.6283 104.129L20.6343 104.124L20.6401 104.12L20.0401 103.32ZM22.2001 108.04L21.833 108.97L21.8437 108.974L21.8544 108.978L22.2001 108.04ZM30.0401 110.52L29.7675 111.482L29.7736 111.484L30.0401 110.52ZM38.0401 112.84L37.7511 113.797L37.7595 113.8L37.7678 113.802L38.0401 112.84ZM45.8801 115.88L45.425 116.77L45.433 116.774L45.4409 116.778L45.8801 115.88ZM51.8801 120.2L52.6097 119.516L51.8801 120.2ZM51.8801 134.68L52.6939 135.261L51.8801 134.68ZM45.7201 140.04L46.1898 140.923H46.1898L45.7201 140.04ZM37.2402 142.92L37.0569 141.937L37.0538 141.938L37.2402 142.92ZM19.6401 143L19.4293 143.978L19.4385 143.98L19.4477 143.981L19.6401 143ZM12.0401 140.36L11.5685 141.242L11.5806 141.248L11.5929 141.254L12.0401 140.36ZM5.80015 135.64L5.07314 136.327L5.07811 136.332L5.08315 136.337L5.80015 135.64ZM1.40015 128.76L1.11376 127.802L0.0470409 128.121L0.478167 129.147L1.40015 128.76ZM16.1201 124.36L15.1874 124.72C16.1819 127.295 17.9226 129.241 20.3761 130.526L20.8401 129.64L21.3042 128.754C19.2777 127.693 17.8717 126.119 17.0529 124L16.1201 124.36ZM20.8401 129.64L20.3761 130.526C22.7923 131.791 25.6804 132.4 29.0001 132.4V131.4V130.4C25.9199 130.4 23.368 129.835 21.3042 128.754L20.8401 129.64ZM29.0001 131.4V132.4C29.6659 132.4 30.46 132.372 31.3789 132.318L31.3202 131.32L31.2614 130.322C30.3669 130.374 29.6144 130.4 29.0001 130.4V131.4ZM31.3202 131.32L31.3789 132.318C32.3455 132.261 33.2872 132.119 34.2027 131.89L33.9602 130.92L33.7176 129.95C32.9265 130.148 32.1081 130.272 31.2614 130.322L31.3202 131.32ZM33.9602 130.92L34.2027 131.89C35.1547 131.652 35.9984 131.285 36.7083 130.769L36.1202 129.96L35.532 129.151C35.0686 129.488 34.4722 129.761 33.7176 129.95L33.9602 130.92ZM36.1202 129.96L36.7083 130.769C37.5626 130.147 38.0001 129.256 38.0001 128.2H37.0001H36.0001C36.0001 128.638 35.8511 128.919 35.532 129.151L36.1202 129.96ZM37.0001 128.2H38.0001C38.0001 126.534 36.5504 125.539 34.8546 124.938L34.5201 125.88L34.1857 126.822C35.7965 127.394 36.0001 127.946 36.0001 128.2H37.0001ZM34.5201 125.88L34.8811 124.947C33.1835 124.29 30.9609 123.587 28.2249 122.836L27.9601 123.8L27.6954 124.764C30.3994 125.507 32.5501 126.19 34.1592 126.813L34.5201 125.88ZM27.9601 123.8L28.2475 122.842C26.6398 122.36 24.8732 121.851 22.9478 121.316L22.6801 122.28L22.4125 123.244C24.3271 123.775 26.0805 124.28 27.6728 124.758L27.9601 123.8ZM22.6801 122.28L22.9549 121.318C21.1003 120.789 19.1915 120.205 17.2287 119.569L16.9202 120.52L16.6116 121.471C18.5954 122.115 20.5267 122.705 22.4054 123.242L22.6801 122.28ZM16.9202 120.52L17.2364 119.571C15.3534 118.944 13.5233 118.212 11.7459 117.375L11.3201 118.28L10.8944 119.185C12.7437 120.055 14.6469 120.816 16.6039 121.469L16.9202 120.52ZM11.3201 118.28L11.7459 117.375C9.98856 116.548 8.45189 115.624 7.12986 114.607L6.52015 115.4L5.91044 116.193C7.36174 117.309 9.02507 118.305 10.8944 119.185L11.3201 118.28ZM6.52015 115.4L7.14849 114.622C5.84178 113.567 4.80027 112.397 4.01181 111.116L3.16015 111.64L2.30849 112.164C3.22669 113.656 4.42519 114.993 5.89181 116.178L6.52015 115.4ZM3.16015 111.64L4.02044 111.13C3.26613 109.857 2.88015 108.409 2.88015 106.76H1.88015H0.880148C0.880148 108.737 1.3475 110.543 2.29986 112.15L3.16015 111.64ZM1.88015 106.76H2.88015C2.88015 103.618 3.63808 101.091 5.08718 99.1105L4.28015 98.52L3.47312 97.9295C1.72221 100.322 0.880148 103.289 0.880148 106.76H1.88015ZM4.28015 98.52L5.08472 99.1138C6.64758 96.9964 8.61223 95.3075 10.9898 94.0429L10.5201 93.16L10.0505 92.2771C7.41473 93.6791 5.21938 95.5636 3.47557 97.9261L4.28015 98.52ZM10.5201 93.16L10.9964 94.0393C13.4536 92.7083 16.1756 91.7817 19.1701 91.2655L19.0001 90.28L18.8302 89.2945C15.6381 89.8449 12.7067 90.8383 10.0439 92.2807L10.5201 93.16ZM19.0001 90.28L19.1834 91.2631C22.2739 90.6869 25.2792 90.4 28.2001 90.4V89.4V88.4C25.1478 88.4 22.0197 88.6998 18.8169 89.2969L19.0001 90.28ZM28.2001 89.4V90.4C31.1212 90.4 33.8754 90.6869 36.4653 91.2566L36.6802 90.28L36.895 89.3034C34.1515 88.6998 31.2524 88.4 28.2001 88.4V89.4ZM36.6802 90.28L36.4877 91.2613C39.1166 91.7768 41.5284 92.625 43.7285 93.8018L44.2001 92.92L44.6718 92.0382C42.2853 90.7617 39.6837 89.8499 36.8726 89.2987L36.6802 90.28ZM44.2001 92.92L43.7447 93.8102C45.934 94.9304 47.896 96.4074 49.6331 98.2466L50.3602 97.56L51.0872 96.8734C49.1976 94.8726 47.053 93.2563 44.6556 92.0297L44.2001 92.92ZM50.3602 97.56L49.6429 98.2568C51.3606 100.025 52.7902 102.212 53.9219 104.836L54.8401 104.44L55.7584 104.044C54.5435 101.228 52.9863 98.8283 51.0774 96.8632L50.3602 97.56ZM54.8401 104.44L54.5538 103.482L39.8338 107.882L40.1201 108.84L40.4065 109.798L55.1265 105.398L54.8401 104.44ZM40.1201 108.84L41.05 108.472C39.9578 105.713 38.1993 103.692 35.7586 102.501L35.3201 103.4L34.8817 104.299C36.8143 105.241 38.2559 106.847 39.1903 109.208L40.1201 108.84ZM35.3201 103.4L35.7674 102.506C33.4561 101.35 30.6248 100.8 27.3201 100.8V101.8V102.8C30.4155 102.8 32.9176 103.317 34.8729 104.294L35.3201 103.4ZM27.3201 101.8V100.8C26.655 100.8 25.835 100.828 24.8647 100.882L24.9202 101.88L24.9756 102.878C25.9253 102.826 26.7053 102.8 27.3201 102.8V101.8ZM24.9202 101.88L24.8614 100.882C23.8948 100.939 22.9531 101.081 22.0376 101.31L22.2802 102.28L22.5227 103.25C23.3138 103.052 24.1322 102.928 24.9789 102.878L24.9202 101.88ZM22.2802 102.28L22.0376 101.31C21.0679 101.552 20.1969 101.952 19.4402 102.52L20.0401 103.32L20.6401 104.12C21.1634 103.728 21.7857 103.434 22.5227 103.25L22.2802 102.28ZM20.0401 103.32L19.452 102.511C18.5977 103.133 18.1601 104.024 18.1601 105.08H19.1601H20.1601C20.1601 104.642 20.3092 104.361 20.6283 104.129L20.0401 103.32ZM19.1601 105.08H18.1601C18.1601 106.938 19.7689 108.155 21.833 108.97L22.2001 108.04L22.5673 107.11C20.5781 106.325 20.1601 105.568 20.1601 105.08H19.1601ZM22.2001 108.04L21.8544 108.978C23.9143 109.737 26.5545 110.572 29.7675 111.482L30.0401 110.52L30.3128 109.558C27.1258 108.655 24.5393 107.836 22.5459 107.102L22.2001 108.04ZM30.0401 110.52L29.7736 111.484C32.2718 112.175 34.931 112.946 37.7511 113.797L38.0401 112.84L38.3292 111.883C35.496 111.027 32.8218 110.252 30.3067 109.556L30.0401 110.52ZM38.0401 112.84L37.7678 113.802C40.5369 114.586 43.0884 115.576 45.425 116.77L45.8801 115.88L46.3353 114.99C43.8719 113.73 41.1967 112.694 38.3125 111.878L38.0401 112.84ZM45.8801 115.88L45.4409 116.778C47.7473 117.906 49.6445 119.277 51.1506 120.884L51.8801 120.2L52.6097 119.516C50.9158 117.709 48.813 116.201 46.3194 114.982L45.8801 115.88ZM51.8801 120.2L51.1506 120.884C52.5677 122.396 53.2802 124.227 53.2802 126.44H54.2802H55.2802C55.2802 123.746 54.3926 121.418 52.6097 119.516L51.8801 120.2ZM54.2802 126.44H53.2802C53.2802 129.524 52.5245 132.058 51.0664 134.099L51.8801 134.68L52.6939 135.261C54.4359 132.822 55.2802 129.863 55.2802 126.44H54.2802ZM51.8801 134.68L51.0664 134.099C49.5591 136.209 47.6252 137.894 45.2505 139.157L45.7201 140.04L46.1898 140.923C48.8285 139.519 51.0012 137.631 52.6939 135.261L51.8801 134.68ZM45.7201 140.04L45.2505 139.157C42.8443 140.437 40.1161 141.367 37.0569 141.937L37.2402 142.92L37.4234 143.903C40.6575 143.3 43.5827 142.31 46.1898 140.923L45.7201 140.04ZM37.2402 142.92L37.0538 141.938C34.0186 142.513 31.041 142.8 28.1201 142.8V143.8V144.8C31.1726 144.8 34.275 144.5 37.4265 143.902L37.2402 142.92ZM28.1201 143.8V142.8C25.2477 142.8 22.4856 142.539 19.8326 142.019L19.6401 143L19.4477 143.981C22.2347 144.528 25.126 144.8 28.1201 144.8V143.8ZM19.6401 143L19.851 142.022C17.208 141.452 14.7546 140.599 12.4874 139.466L12.0401 140.36L11.5929 141.254C14.019 142.467 16.6323 143.374 19.4293 143.978L19.6401 143ZM12.0401 140.36L12.5118 139.478C10.312 138.302 8.31418 136.791 6.51714 134.943L5.80015 135.64L5.08315 136.337C7.01945 138.329 9.18168 139.965 11.5685 141.242L12.0401 140.36ZM5.80015 135.64L6.52716 134.953C4.80376 133.129 3.40007 130.939 2.32213 128.373L1.40015 128.76L0.478167 129.147C1.64023 131.914 3.16987 134.311 5.07314 136.327L5.80015 135.64ZM1.40015 128.76L1.68654 129.718L16.4065 125.318L16.1201 124.36L15.8338 123.402L1.11376 127.802L1.40015 128.76ZM65.222 107.48L65.8977 108.217L65.222 107.48ZM90.822 103.88L90.4475 104.807L90.4537 104.81L90.822 103.88ZM97.782 108.68L97.0283 109.337L97.0372 109.347L97.0465 109.357L97.782 108.68ZM101.782 116.04L100.819 116.308L101.782 116.04ZM102.422 125.72V126.72H103.323L103.417 125.824L102.422 125.72ZM74.342 125.72V124.72H73.2908L73.3433 125.77L74.342 125.72ZM76.022 130.84L75.238 131.461L75.2458 131.471L75.2538 131.48L76.022 130.84ZM86.022 131.56L86.6622 132.328L86.6662 132.325L86.022 131.56ZM88.102 128.2L88.2637 127.213L87.3715 127.067L87.1364 127.94L88.102 128.2ZM102.262 130.52L103.217 130.816L103.558 129.719L102.424 129.533L102.262 130.52ZM94.422 140.68L94.9087 141.554L94.9129 141.551L94.422 140.68ZM65.222 138.52L64.5463 139.257L64.5514 139.262L65.222 138.52ZM88.102 118.76V119.76H89.1819L89.0991 118.683L88.102 118.76ZM87.702 116.76L86.7462 117.054L86.7497 117.065L86.7533 117.076L87.702 116.76ZM86.582 115L85.8749 115.707L85.8935 115.726L85.9131 115.743L86.582 115ZM84.502 113.72L84.8531 112.784L84.502 113.72ZM76.182 114.84L75.4387 114.171L76.182 114.84ZM74.422 118.76L73.4314 118.623L73.2746 119.76H74.422V118.76ZM59.462 123H60.462C60.462 116.362 62.3235 111.494 65.8977 108.217L65.222 107.48L64.5463 106.743C60.4406 110.506 58.462 115.985 58.462 123H59.462ZM65.222 107.48L65.8977 108.217C69.502 104.913 74.5658 103.2 81.222 103.2V102.2V101.2C74.2249 101.2 68.6221 103.007 64.5463 106.743L65.222 107.48ZM81.222 102.2V103.2C84.7469 103.2 87.8156 103.744 90.4476 104.807L90.822 103.88L91.1965 102.953C88.2818 101.776 84.9505 101.2 81.222 101.2V102.2ZM90.822 103.88L90.4537 104.81C93.1473 105.877 95.3301 107.389 97.0283 109.337L97.782 108.68L98.5358 108.023C96.6072 105.811 94.1501 104.123 91.1904 102.95L90.822 103.88ZM97.782 108.68L97.0465 109.357C98.7968 111.258 100.057 113.567 100.819 116.308L101.782 116.04L102.746 115.772C101.907 112.753 100.501 110.155 98.5176 108.003L97.782 108.68ZM101.782 116.04L100.819 116.308C101.579 119.045 101.79 122.143 101.427 125.616L102.422 125.72L103.417 125.824C103.8 122.15 103.585 118.795 102.746 115.772L101.782 116.04ZM102.422 125.72V124.72H74.342V125.72V126.72H102.422V125.72ZM74.342 125.72L73.3433 125.77C73.4571 128.048 74.0607 129.974 75.238 131.461L76.022 130.84L76.8061 130.219C75.9566 129.146 75.4402 127.659 75.3408 125.67L74.342 125.72ZM76.022 130.84L75.2538 131.48C76.5901 133.084 78.7308 133.76 81.382 133.76V132.76V131.76C79.02 131.76 77.5873 131.156 76.7902 130.2L76.022 130.84ZM81.382 132.76V133.76C83.5984 133.76 85.4333 133.352 86.6622 132.328L86.022 131.56L85.3818 130.792C84.6908 131.368 83.4323 131.76 81.382 131.76V132.76ZM86.022 131.56L86.6662 132.325C87.8489 131.329 88.6459 130.026 89.0676 128.46L88.102 128.2L87.1364 127.94C86.8115 129.147 86.2218 130.084 85.3779 130.795L86.022 131.56ZM88.102 128.2L87.9403 129.187L102.1 131.507L102.262 130.52L102.424 129.533L88.2637 127.213L88.102 128.2ZM102.262 130.52L101.307 130.224C99.933 134.651 97.4685 137.816 93.9312 139.809L94.422 140.68L94.9129 141.551C98.9489 139.277 101.711 135.669 103.217 130.816L102.262 130.52ZM94.422 140.68L93.9353 139.806C90.3732 141.791 86.1992 142.8 81.382 142.8V143.8V144.8C86.4848 144.8 91.0042 143.729 94.9087 141.554L94.422 140.68ZM81.382 143.8V142.8C74.671 142.8 69.551 141.086 65.8927 137.778L65.222 138.52L64.5514 139.262C68.6797 142.994 74.3331 144.8 81.382 144.8V143.8ZM65.222 138.52L65.8977 137.783C62.3235 134.506 60.462 129.638 60.462 123H59.462H58.462C58.462 130.015 60.4406 135.494 64.5463 139.257L65.222 138.52ZM88.102 118.76L89.0991 118.683C89.0397 117.911 88.8907 117.164 88.6507 116.444L87.702 116.76L86.7533 117.076C86.94 117.636 87.0577 118.222 87.105 118.837L88.102 118.76ZM87.702 116.76L88.6578 116.466C88.3919 115.602 87.9203 114.859 87.251 114.257L86.582 115L85.9131 115.743C86.3104 116.101 86.5855 116.532 86.7462 117.054L87.702 116.76ZM86.582 115L87.2891 114.293C86.6361 113.64 85.8128 113.144 84.8531 112.784L84.502 113.72L84.1509 114.656C84.8979 114.936 85.4613 115.293 85.8749 115.707L86.582 115ZM84.502 113.72L84.8531 112.784C83.8484 112.407 82.6248 112.24 81.222 112.24V113.24V114.24C82.4859 114.24 83.449 114.393 84.1509 114.656L84.502 113.72ZM81.222 113.24V112.24C78.7215 112.24 76.6835 112.788 75.4387 114.171L76.182 114.84L76.9253 115.509C77.6006 114.759 78.9226 114.24 81.222 114.24V113.24ZM76.182 114.84L75.4387 114.171C74.3331 115.4 73.6696 116.897 73.4314 118.623L74.422 118.76L75.4126 118.897C75.6012 117.53 76.111 116.414 76.9253 115.509L76.182 114.84ZM74.422 118.76V119.76H88.102V118.76V117.76H74.422V118.76ZM126.778 117.24L127.398 118.025L127.404 118.02L127.41 118.015L126.778 117.24ZM123.738 143V144H124.738V143H123.738ZM107.498 143H106.498V144H107.498V143ZM107.498 103V102H106.498V103H107.498ZM119.738 103L120.688 102.687L120.462 102H119.738V103ZM122.058 110.04L121.109 110.353L121.799 112.449L122.92 110.548L122.058 110.04ZM128.698 103.88L129.086 104.802L129.093 104.799L129.101 104.795L128.698 103.88ZM140.378 102.52L140.147 103.493L140.173 103.499L140.199 103.504L140.378 102.52ZM143.578 103.64H144.578V103.052L144.064 102.766L143.578 103.64ZM143.578 117.64L142.852 118.328L144.578 120.15V117.64H143.578ZM139.898 115.48L139.592 116.432L139.608 116.437L139.624 116.442L139.898 115.48ZM135.098 114.76V113.76C131.428 113.76 128.405 114.623 126.146 116.465L126.778 117.24L127.41 118.015C129.205 116.551 131.729 115.76 135.098 115.76V114.76ZM126.778 117.24L126.159 116.455C123.776 118.336 122.738 121.6 122.738 125.88H123.738H124.738C124.738 121.84 125.727 119.344 127.398 118.025L126.778 117.24ZM123.738 125.88H122.738V143H123.738H124.738V125.88H123.738ZM123.738 143V142H107.498V143V144H123.738V143ZM107.498 143H108.498V103H107.498H106.498V143H107.498ZM107.498 103V104H119.738V103V102H107.498V103ZM119.738 103L118.789 103.313L121.109 110.353L122.058 110.04L123.008 109.727L120.688 102.687L119.738 103ZM122.058 110.04L122.92 110.548C124.593 107.709 126.654 105.823 129.086 104.802L128.698 103.88L128.311 102.958C125.409 104.177 123.044 106.398 121.197 109.532L122.058 110.04ZM128.698 103.88L129.101 104.795C131.642 103.677 134.279 103.12 137.018 103.12V102.12V101.12C133.998 101.12 131.088 101.736 128.296 102.965L128.698 103.88ZM137.018 102.12V103.12C138.058 103.12 139.1 103.244 140.147 103.493L140.378 102.52L140.61 101.547C139.416 101.263 138.218 101.12 137.018 101.12V102.12ZM140.378 102.52L140.199 103.504C141.274 103.699 142.236 104.038 143.093 104.514L143.578 103.64L144.064 102.766C143 102.175 141.829 101.767 140.557 101.536L140.378 102.52ZM143.578 103.64H142.578V117.64H143.578H144.578V103.64H143.578ZM143.578 117.64L144.304 116.952C143.208 115.795 141.819 114.989 140.173 114.518L139.898 115.48L139.624 116.442C140.965 116.825 142.029 117.459 142.852 118.328L143.578 117.64ZM139.898 115.48L140.204 114.528C138.604 114.014 136.9 113.76 135.098 113.76V114.76V115.76C136.71 115.76 138.206 115.986 139.592 116.432L139.898 115.48ZM146.399 103V102H144.938L145.467 103.362L146.399 103ZM161.759 103L162.703 102.67L162.468 102H161.759V103ZM171.199 129.96L170.255 130.29L171.195 132.975L172.142 130.293L171.199 129.96ZM180.719 103V102H180.012L179.776 102.667L180.719 103ZM196.079 103L197.011 103.362L197.54 102H196.079V103ZM180.559 143V144H181.244L181.491 143.362L180.559 143ZM161.919 143L160.987 143.362L161.234 144H161.919V143ZM146.399 103V104H161.759V103V102H146.399V103ZM161.759 103L160.815 103.33L170.255 130.29L171.199 129.96L172.143 129.63L162.703 102.67L161.759 103ZM171.199 129.96L172.142 130.293L181.662 103.333L180.719 103L179.776 102.667L170.256 129.627L171.199 129.96ZM180.719 103V104H196.079V103V102H180.719V103ZM196.079 103L195.147 102.638L179.627 142.638L180.559 143L181.491 143.362L197.011 103.362L196.079 103ZM180.559 143V142H161.919V143V144H180.559V143ZM161.919 143L162.851 142.638L147.331 102.638L146.399 103L145.467 103.362L160.987 143.362L161.919 143ZM200.71 143H199.71V144H200.71V143ZM200.71 103V102H199.71V103H200.71ZM216.63 103H217.63V102H216.63V103ZM216.63 143V144H217.63V143H216.63ZM202.23 85.72L202.813 86.532L202.821 86.5261L202.83 86.52L202.23 85.72ZM214.95 85.72L214.35 86.52L214.363 86.5304L214.378 86.5404L214.95 85.72ZM215.03 97.56L215.613 98.372L215.621 98.3661L215.63 98.36L215.03 97.56ZM202.23 97.48L201.63 98.28L201.635 98.2844L201.641 98.2887L202.23 97.48ZM200.71 143H201.71V103H200.71H199.71V143H200.71ZM200.71 103V104H216.63V103V102H200.71V103ZM216.63 103H215.63V143H216.63H217.63V103H216.63ZM216.63 143V142H200.71V143V144H216.63V143ZM199.67 91.56H200.67C200.67 89.119 201.437 87.5209 202.813 86.532L202.23 85.72L201.646 84.908C199.608 86.3724 198.67 88.6676 198.67 91.56H199.67ZM202.23 85.72L202.83 86.52C204.331 85.3942 206.241 84.8 208.63 84.8V83.8V82.8C205.898 82.8 203.542 83.4858 201.63 84.92L202.23 85.72ZM208.63 83.8V84.8C210.959 84.8 212.845 85.3915 214.35 86.52L214.95 85.72L215.55 84.92C213.641 83.4885 211.313 82.8 208.63 82.8V83.8ZM214.95 85.72L214.378 86.5404C215.804 87.5341 216.59 89.1309 216.59 91.56H217.59H218.59C218.59 88.6558 217.616 86.3592 215.521 84.8996L214.95 85.72ZM217.59 91.56H216.59C216.59 94.0606 215.817 95.7196 214.43 96.76L215.03 97.56L215.63 98.36C217.656 96.8404 218.59 94.4994 218.59 91.56H217.59ZM215.03 97.56L214.446 96.748C212.943 97.8278 211.027 98.4 208.63 98.4V99.4V100.4C211.352 100.4 213.702 99.7455 215.613 98.372L215.03 97.56ZM208.63 99.4V98.4C206.301 98.4 204.382 97.8087 202.818 96.6713L202.23 97.48L201.641 98.2887C203.597 99.7113 205.945 100.4 208.63 100.4V99.4ZM202.23 97.48L202.83 96.68C201.437 95.6357 200.67 93.9992 200.67 91.56H199.67H198.67C198.67 94.4541 199.609 96.7643 201.63 98.28L202.23 97.48ZM228.041 107.48L227.371 106.738L227.366 106.743L228.041 107.48ZM258.041 105.96L257.473 106.783L257.478 106.786L258.041 105.96ZM265.241 117L265.38 117.99L266.461 117.838L266.216 116.775L265.241 117ZM251.001 119L250.019 119.186L250.196 120.123L251.14 119.99L251.001 119ZM249.081 114.68L248.354 115.367L248.364 115.377L248.374 115.387L249.081 114.68ZM240.441 114.04L240.909 114.924L240.918 114.919L240.927 114.914L240.441 114.04ZM238.281 116.12L239.129 116.65L239.137 116.639L239.143 116.627L238.281 116.12ZM237.241 119.16L238.232 119.295L237.241 119.16ZM237.241 126.84L236.25 126.969L236.251 126.975L237.241 126.84ZM238.281 129.96L237.419 130.467L237.426 130.479L237.433 130.49L238.281 129.96ZM240.441 132.04L239.934 132.902L239.964 132.919L239.994 132.934L240.441 132.04ZM249.081 131.4L249.789 132.107L249.799 132.097L249.808 132.087L249.081 131.4ZM251.001 127L251.14 126.01L250.196 125.877L250.019 126.814L251.001 127ZM265.241 129L266.216 129.225L266.461 128.161L265.38 128.01L265.241 129ZM258.041 140.04L257.478 139.214L257.473 139.217L258.041 140.04ZM228.041 138.52L227.366 139.257L227.371 139.262L228.041 138.52ZM222.281 123H223.281C223.281 116.362 225.143 111.494 228.717 108.217L228.041 107.48L227.366 106.743C223.26 110.506 221.281 115.985 221.281 123H222.281ZM228.041 107.48L228.712 108.222C232.372 104.913 237.466 103.2 244.121 103.2V102.2V101.2C237.123 101.2 231.498 103.007 227.371 106.738L228.041 107.48ZM244.121 102.2V103.2C249.629 103.2 254.055 104.42 257.473 106.783L258.041 105.96L258.61 105.137C254.775 102.486 249.921 101.2 244.121 101.2V102.2ZM258.041 105.96L257.478 106.786C260.925 109.134 263.196 112.585 264.267 117.225L265.241 117L266.216 116.775C265.046 111.708 262.518 107.799 258.604 105.134L258.041 105.96ZM265.241 117L265.102 116.01L250.862 118.01L251.001 119L251.14 119.99L265.38 117.99L265.241 117ZM251.001 119L251.984 118.814C251.593 116.747 250.897 115.081 249.789 113.973L249.081 114.68L248.374 115.387C249.079 116.092 249.663 117.307 250.019 119.186L251.001 119ZM249.081 114.68L249.808 113.993C248.607 112.721 246.59 112.24 244.121 112.24V113.24V114.24C246.453 114.24 247.742 114.719 248.354 115.367L249.081 114.68ZM244.121 113.24V112.24C242.517 112.24 241.108 112.526 239.956 113.166L240.441 114.04L240.927 114.914C241.695 114.488 242.74 114.24 244.121 114.24V113.24ZM240.441 114.04L239.974 113.156C238.899 113.725 238.044 114.551 237.419 115.613L238.281 116.12L239.143 116.627C239.585 115.876 240.171 115.315 240.909 114.924L240.441 114.04ZM238.281 116.12L237.433 115.59C236.813 116.583 236.426 117.736 236.251 119.025L237.241 119.16L238.232 119.295C238.376 118.238 238.683 117.364 239.129 116.65L238.281 116.12ZM237.241 119.16L236.251 119.025C236.084 120.25 236.001 121.576 236.001 123H237.001H238.001C238.001 121.651 238.079 120.417 238.232 119.295L237.241 119.16ZM237.001 123H236.001C236.001 124.373 236.084 125.697 236.25 126.969L237.241 126.84L238.233 126.711C238.079 125.53 238.001 124.293 238.001 123H237.001ZM237.241 126.84L236.251 126.975C236.426 128.263 236.811 129.433 237.419 130.467L238.281 129.96L239.143 129.453C238.685 128.674 238.377 127.763 238.232 126.705L237.241 126.84ZM238.281 129.96L237.433 130.49C238.056 131.486 238.896 132.291 239.934 132.902L240.441 132.04L240.948 131.178C240.174 130.723 239.574 130.141 239.129 129.43L238.281 129.96ZM240.441 132.04L239.994 132.934C241.136 133.506 242.53 133.76 244.121 133.76V132.76V131.76C242.726 131.76 241.666 131.534 240.889 131.146L240.441 132.04ZM244.121 132.76V133.76C246.579 133.76 248.586 133.309 249.789 132.107L249.081 131.4L248.374 130.693C247.763 131.304 246.463 131.76 244.121 131.76V132.76ZM249.081 131.4L249.808 132.087C250.898 130.933 251.592 129.256 251.984 127.186L251.001 127L250.019 126.814C249.664 128.691 249.078 129.947 248.354 130.713L249.081 131.4ZM251.001 127L250.862 127.99L265.102 129.99L265.241 129L265.38 128.01L251.14 126.01L251.001 127ZM265.241 129L264.267 128.775C263.196 133.415 260.925 136.866 257.478 139.214L258.041 140.04L258.604 140.866C262.518 138.201 265.046 134.292 266.216 129.225L265.241 129ZM258.041 140.04L257.473 139.217C254.055 141.58 249.629 142.8 244.121 142.8V143.8V144.8C249.921 144.8 254.775 143.514 258.61 140.863L258.041 140.04ZM244.121 143.8V142.8C237.466 142.8 232.372 141.087 228.712 137.778L228.041 138.52L227.371 139.262C231.498 142.993 237.123 144.8 244.121 144.8V143.8ZM228.041 138.52L228.717 137.783C225.143 134.506 223.281 129.638 223.281 123H222.281H221.281C221.281 130.015 223.26 135.494 227.366 139.257L228.041 138.52ZM273.769 107.48L274.445 108.217L273.769 107.48ZM299.369 103.88L298.994 104.807L299.001 104.81L299.369 103.88ZM306.329 108.68L305.575 109.337L305.584 109.347L305.593 109.357L306.329 108.68ZM310.329 116.04L309.365 116.308L310.329 116.04ZM310.969 125.72V126.72H311.87L311.963 125.824L310.969 125.72ZM282.889 125.72V124.72H281.838L281.89 125.77L282.889 125.72ZM284.569 130.84L283.785 131.461L283.793 131.471L283.801 131.48L284.569 130.84ZM294.569 131.56L295.209 132.328L295.213 132.325L294.569 131.56ZM296.649 128.2L296.811 127.213L295.918 127.067L295.683 127.94L296.649 128.2ZM310.809 130.52L311.764 130.816L312.105 129.719L310.971 129.533L310.809 130.52ZM302.969 140.68L303.456 141.554L303.46 141.551L302.969 140.68ZM273.769 138.52L273.093 139.257L273.098 139.262L273.769 138.52ZM296.649 118.76V119.76H297.729L297.646 118.683L296.649 118.76ZM296.249 116.76L295.293 117.054L295.297 117.065L295.3 117.076L296.249 116.76ZM295.129 115L294.422 115.707L294.44 115.726L294.46 115.743L295.129 115ZM293.049 113.72L293.4 112.784L293.049 113.72ZM284.729 114.84L283.986 114.171L284.729 114.84ZM282.969 118.76L281.978 118.623L281.822 119.76H282.969V118.76ZM268.009 123H269.009C269.009 116.362 270.87 111.494 274.445 108.217L273.769 107.48L273.093 106.743C268.987 110.506 267.009 115.985 267.009 123H268.009ZM273.769 107.48L274.445 108.217C278.049 104.913 283.113 103.2 289.769 103.2V102.2V101.2C282.772 101.2 277.169 103.007 273.093 106.743L273.769 107.48ZM289.769 102.2V103.2C293.294 103.2 296.362 103.744 298.994 104.807L299.369 103.88L299.743 102.953C296.829 101.776 293.497 101.2 289.769 101.2V102.2ZM299.369 103.88L299.001 104.81C301.694 105.877 303.877 107.389 305.575 109.337L306.329 108.68L307.083 108.023C305.154 105.811 302.697 104.123 299.737 102.95L299.369 103.88ZM306.329 108.68L305.593 109.357C307.344 111.258 308.604 113.567 309.365 116.308L310.329 116.04L311.292 115.772C310.454 112.753 309.047 110.155 307.064 108.003L306.329 108.68ZM310.329 116.04L309.365 116.308C310.126 119.045 310.337 122.143 309.974 125.616L310.969 125.72L311.963 125.824C312.347 122.15 312.132 118.795 311.292 115.772L310.329 116.04ZM310.969 125.72V124.72H282.889V125.72V126.72H310.969V125.72ZM282.889 125.72L281.89 125.77C282.004 128.048 282.608 129.974 283.785 131.461L284.569 130.84L285.353 130.219C284.504 129.146 283.987 127.659 283.888 125.67L282.889 125.72ZM284.569 130.84L283.801 131.48C285.137 133.084 287.278 133.76 289.929 133.76V132.76V131.76C287.567 131.76 286.134 131.156 285.337 130.2L284.569 130.84ZM289.929 132.76V133.76C292.145 133.76 293.98 133.352 295.209 132.328L294.569 131.56L293.929 130.792C293.238 131.368 291.979 131.76 289.929 131.76V132.76ZM294.569 131.56L295.213 132.325C296.396 131.329 297.193 130.026 297.615 128.46L296.649 128.2L295.683 127.94C295.358 129.147 294.769 130.084 293.925 130.795L294.569 131.56ZM296.649 128.2L296.487 129.187L310.647 131.507L310.809 130.52L310.971 129.533L296.811 127.213L296.649 128.2ZM310.809 130.52L309.854 130.224C308.48 134.651 306.015 137.816 302.478 139.809L302.969 140.68L303.46 141.551C307.496 139.277 310.258 135.669 311.764 130.816L310.809 130.52ZM302.969 140.68L302.482 139.806C298.92 141.791 294.746 142.8 289.929 142.8V143.8V144.8C295.032 144.8 299.551 143.729 303.456 141.554L302.969 140.68ZM289.929 143.8V142.8C283.218 142.8 278.098 141.086 274.44 137.778L273.769 138.52L273.098 139.262C277.227 142.994 282.88 144.8 289.929 144.8V143.8ZM273.769 138.52L274.445 137.783C270.87 134.506 269.009 129.638 269.009 123H268.009H267.009C267.009 130.015 268.987 135.494 273.093 139.257L273.769 138.52ZM296.649 118.76L297.646 118.683C297.587 117.911 297.438 117.164 297.198 116.444L296.249 116.76L295.3 117.076C295.487 117.636 295.605 118.222 295.652 118.837L296.649 118.76ZM296.249 116.76L297.205 116.466C296.939 115.602 296.467 114.859 295.798 114.257L295.129 115L294.46 115.743C294.857 116.101 295.132 116.532 295.293 117.054L296.249 116.76ZM295.129 115L295.836 114.293C295.183 113.64 294.36 113.144 293.4 112.784L293.049 113.72L292.698 114.656C293.445 114.936 294.008 115.293 294.422 115.707L295.129 115ZM293.049 113.72L293.4 112.784C292.395 112.407 291.172 112.24 289.769 112.24V113.24V114.24C291.033 114.24 291.996 114.393 292.698 114.656L293.049 113.72ZM289.769 113.24V112.24C287.268 112.24 285.23 112.788 283.986 114.171L284.729 114.84L285.472 115.509C286.147 114.759 287.469 114.24 289.769 114.24V113.24ZM284.729 114.84L283.986 114.171C282.88 115.4 282.216 116.897 281.978 118.623L282.969 118.76L283.96 118.897C284.148 117.53 284.658 116.414 285.472 115.509L284.729 114.84ZM282.969 118.76V119.76H296.649V118.76V117.76H282.969V118.76ZM337.485 129.32L336.93 130.152L336.982 130.187L337.038 130.214L337.485 129.32ZM335.485 128.44L335.169 129.389L335.178 129.392L335.187 129.394L335.485 128.44ZM332.605 127.64L332.33 128.602L332.352 128.608L332.374 128.613L332.605 127.64ZM329.005 126.6L328.721 127.559L328.725 127.56L329.005 126.6ZM324.525 125.16L324.171 126.095L324.185 126.1L324.199 126.105L324.525 125.16ZM320.285 123L319.707 123.816L319.719 123.824L319.73 123.832L320.285 123ZM317.085 119.8L316.237 120.33L316.25 120.351L316.264 120.371L317.085 119.8ZM317.405 109.16L318.258 109.683L317.405 109.16ZM321.485 105.16L321.996 106.02L322.003 106.015L321.485 105.16ZM327.565 102.92L327.748 103.903L327.757 103.901L327.766 103.9L327.565 102.92ZM341.805 102.92L341.596 103.898L341.6 103.899L341.805 102.92ZM348.125 105.24L347.64 106.114L347.649 106.119L347.658 106.124L348.125 105.24ZM355.965 114.92L356.148 115.903L357.181 115.711L356.938 114.688L355.965 114.92ZM343.485 117.24L342.532 117.541L342.798 118.385L343.668 118.223L343.485 117.24ZM336.285 114.28L336.195 113.284L336.186 113.285L336.285 114.28ZM333.485 115.08L334.04 115.912L334.053 115.903L334.066 115.894L333.485 115.08ZM335.645 117.72L335.382 118.685L335.645 117.72ZM341.965 119.48L342.249 118.521L342.237 118.518L341.965 119.48ZM346.445 121L346.091 121.935L346.11 121.942L346.129 121.949L346.445 121ZM350.765 123.08L350.21 123.912L350.23 123.925L350.251 123.937L350.765 123.08ZM353.965 126.04L353.139 126.603L353.148 126.616L353.156 126.628L353.965 126.04ZM353.645 136.52L352.797 135.99L352.791 136L352.785 136.009L353.645 136.52ZM349.405 140.68L348.898 139.818L348.887 139.825L349.405 140.68ZM343.165 143L342.969 142.019L342.956 142.022L342.944 142.025L343.165 143ZM328.365 143L328.592 142.026L328.583 142.024L328.575 142.022L328.365 143ZM322.205 140.76L321.698 141.622L321.713 141.631L321.728 141.639L322.205 140.76ZM317.565 136.76L316.772 137.368L316.778 137.377L316.784 137.385L317.565 136.76ZM314.845 131L314.673 130.015L313.603 130.202L313.878 131.253L314.845 131ZM327.645 128.76L328.622 128.548L328.418 127.609L327.473 127.775L327.645 128.76ZM329.565 131.32L329.137 132.224L329.146 132.228L329.155 132.232L329.565 131.32ZM336.765 131.72L336.559 130.741L336.548 130.744L336.765 131.72ZM338.285 130.2H339.285C339.285 129.257 338.509 128.714 337.932 128.426L337.485 129.32L337.038 130.214C337.137 130.264 337.21 130.308 337.262 130.344C337.314 130.381 337.338 130.405 337.345 130.413C337.352 130.42 337.336 130.404 337.318 130.364C337.299 130.32 337.285 130.263 337.285 130.2H338.285ZM337.485 129.32L338.04 128.488C337.45 128.095 336.684 127.767 335.783 127.486L335.485 128.44L335.187 129.394C335.993 129.647 336.561 129.905 336.93 130.152L337.485 129.32ZM335.485 128.44L335.801 127.491C334.966 127.213 333.976 126.938 332.837 126.667L332.605 127.64L332.374 128.613C333.475 128.875 334.405 129.134 335.169 129.389L335.485 128.44ZM332.605 127.64L332.88 126.678C331.762 126.359 330.564 126.013 329.285 125.64L329.005 126.6L328.725 127.56C330.007 127.934 331.208 128.281 332.33 128.602L332.605 127.64ZM329.005 126.6L329.289 125.641C327.865 125.219 326.385 124.744 324.851 124.215L324.525 125.16L324.199 126.105C325.759 126.643 327.266 127.128 328.721 127.559L329.005 126.6ZM324.525 125.16L324.88 124.225C323.398 123.663 322.053 122.977 320.84 122.168L320.285 123L319.73 123.832C321.078 124.73 322.559 125.484 324.171 126.095L324.525 125.16ZM320.285 123L320.863 122.184C319.673 121.341 318.69 120.356 317.906 119.229L317.085 119.8L316.264 120.371C317.187 121.698 318.337 122.846 319.707 123.816L320.285 123ZM317.085 119.8L317.933 119.27C317.251 118.178 316.885 116.824 316.885 115.16H315.885H314.885C314.885 117.123 315.319 118.862 316.237 120.33L317.085 119.8ZM315.885 115.16H316.885C316.885 112.959 317.359 111.148 318.258 109.683L317.405 109.16L316.553 108.637C315.424 110.478 314.885 112.668 314.885 115.16H315.885ZM317.405 109.16L318.258 109.683C319.184 108.171 320.425 106.952 321.996 106.02L321.485 105.16L320.975 104.3C319.132 105.394 317.653 106.842 316.553 108.637L317.405 109.16ZM321.485 105.16L322.003 106.015C323.647 105.019 325.558 104.311 327.748 103.903L327.565 102.92L327.382 101.937C324.986 102.383 322.843 103.168 320.967 104.305L321.485 105.16ZM327.565 102.92L327.766 103.9C330.041 103.434 332.453 103.2 335.005 103.2V102.2V101.2C332.331 101.2 329.783 101.446 327.365 101.94L327.565 102.92ZM335.005 102.2V103.2C337.228 103.2 339.425 103.433 341.596 103.898L341.805 102.92L342.015 101.942C339.706 101.447 337.369 101.2 335.005 101.2V102.2ZM341.805 102.92L341.6 103.899C343.802 104.36 345.813 105.099 347.64 106.114L348.125 105.24L348.611 104.366C346.597 103.247 344.395 102.44 342.01 101.941L341.805 102.92ZM348.125 105.24L347.658 106.124C349.472 107.081 351.026 108.311 352.329 109.815L353.085 109.16L353.841 108.505C352.371 106.809 350.619 105.425 348.592 104.356L348.125 105.24ZM353.085 109.16L352.329 109.815C353.602 111.283 354.493 113.054 354.992 115.152L355.965 114.92L356.938 114.688C356.371 112.306 355.342 110.237 353.841 108.505L353.085 109.16ZM355.965 114.92L355.782 113.937L343.302 116.257L343.485 117.24L343.668 118.223L356.148 115.903L355.965 114.92ZM343.485 117.24L344.439 116.939C344.041 115.679 343.243 114.711 342.082 114.081C340.951 113.467 339.528 113.2 337.885 113.2V114.2V115.2C339.336 115.2 340.393 115.44 341.128 115.839C341.834 116.222 342.29 116.775 342.532 117.541L343.485 117.24ZM337.885 114.2V113.2C337.369 113.2 336.805 113.229 336.195 113.284L336.285 114.28L336.376 115.276C336.939 115.225 337.441 115.2 337.885 115.2V114.2ZM336.285 114.28L336.186 113.285C335.616 113.342 335.07 113.428 334.548 113.544L334.765 114.52L334.982 115.496C335.42 115.399 335.887 115.325 336.385 115.275L336.285 114.28ZM334.765 114.52L334.548 113.544C333.947 113.677 333.394 113.916 332.904 114.266L333.485 115.08L334.066 115.894C334.323 115.711 334.624 115.576 334.982 115.496L334.765 114.52ZM333.485 115.08L332.93 114.248C332.298 114.669 332.005 115.322 332.005 116.04H333.005H334.005C334.005 115.996 334.009 115.966 334.013 115.95C334.015 115.941 334.017 115.935 334.018 115.932C334.019 115.929 334.02 115.927 334.02 115.927C334.02 115.927 334.019 115.928 334.019 115.928C334.018 115.929 334.018 115.929 334.018 115.929C334.019 115.929 334.024 115.922 334.04 115.912L333.485 115.08ZM333.005 116.04H332.005C332.005 116.877 332.587 117.439 333.128 117.784C333.693 118.143 334.466 118.435 335.382 118.685L335.645 117.72L335.908 116.755C335.064 116.525 334.517 116.297 334.202 116.096C333.863 115.881 334.005 115.843 334.005 116.04H333.005ZM335.645 117.72L335.382 118.685C337.138 119.164 339.242 119.75 341.693 120.442L341.965 119.48L342.237 118.518C339.782 117.824 337.672 117.236 335.908 116.755L335.645 117.72ZM341.965 119.48L341.681 120.439C343.095 120.858 344.565 121.356 346.091 121.935L346.445 121L346.8 120.065C345.232 119.47 343.715 118.956 342.249 118.521L341.965 119.48ZM346.445 121L346.129 121.949C347.653 122.457 349.011 123.113 350.21 123.912L350.765 123.08L351.32 122.248C349.959 121.341 348.438 120.61 346.761 120.051L346.445 121ZM350.765 123.08L350.251 123.937C351.472 124.67 352.428 125.56 353.139 126.603L353.965 126.04L354.791 125.477C353.902 124.173 352.725 123.09 351.28 122.223L350.765 123.08ZM353.965 126.04L353.156 126.628C353.865 127.602 354.245 128.826 354.245 130.36H355.245H356.245C356.245 128.48 355.772 126.825 354.774 125.452L353.965 126.04ZM355.245 130.36H354.245C354.245 132.609 353.747 134.471 352.797 135.99L353.645 136.52L354.493 137.05C355.677 135.156 356.245 132.911 356.245 130.36H355.245ZM353.645 136.52L352.785 136.009C351.863 137.562 350.575 138.832 348.898 139.818L349.405 140.68L349.912 141.542C351.862 140.395 353.4 138.891 354.505 137.031L353.645 136.52ZM349.405 140.68L348.887 139.825C347.243 140.821 345.276 141.558 342.969 142.019L343.165 143L343.361 143.981C345.854 143.482 348.047 142.672 349.923 141.535L349.405 140.68ZM343.165 143L342.944 142.025C340.677 142.54 338.245 142.8 335.645 142.8V143.8V144.8C338.379 144.8 340.96 144.527 343.387 143.975L343.165 143ZM335.645 143.8V142.8C333.155 142.8 330.805 142.541 328.592 142.026L328.365 143L328.139 143.974C330.512 144.526 333.016 144.8 335.645 144.8V143.8ZM328.365 143L328.575 142.022C326.421 141.561 324.459 140.845 322.682 139.881L322.205 140.76L321.728 141.639C323.685 142.701 325.829 143.479 328.156 143.978L328.365 143ZM322.205 140.76L322.712 139.898C321.001 138.891 319.548 137.638 318.346 136.135L317.565 136.76L316.784 137.385C318.142 139.082 319.783 140.495 321.698 141.622L322.205 140.76ZM317.565 136.76L318.359 136.152C317.224 134.672 316.37 132.877 315.813 130.747L314.845 131L313.878 131.253C314.493 133.603 315.453 135.648 316.772 137.368L317.565 136.76ZM314.845 131L315.018 131.985L327.818 129.745L327.645 128.76L327.473 127.775L314.673 130.015L314.845 131ZM327.645 128.76L326.668 128.972C326.992 130.461 327.807 131.594 329.137 132.224L329.565 131.32L329.993 130.416C329.296 130.086 328.832 129.513 328.622 128.548L327.645 128.76ZM329.565 131.32L329.155 132.232C330.389 132.787 331.873 133.04 333.565 133.04V132.04V131.04C332.058 131.04 330.875 130.813 329.976 130.408L329.565 131.32ZM333.565 132.04V133.04C334.798 133.04 335.939 132.928 336.982 132.696L336.765 131.72L336.548 130.744C335.672 130.939 334.679 131.04 333.565 131.04V132.04ZM336.765 131.72L336.971 132.699C337.587 132.569 338.173 132.326 338.612 131.887C339.076 131.424 339.285 130.831 339.285 130.2H338.285H337.285C337.285 130.369 337.241 130.43 337.198 130.473C337.13 130.541 336.956 130.658 336.559 130.741L336.765 131.72ZM363.092 129.8L362.504 128.991L362.498 128.996L362.492 129L363.092 129.8ZM375.972 129.8L375.372 130.6L375.386 130.61L375.4 130.62L375.972 129.8ZM375.972 141.72L375.384 140.911L375.378 140.916L375.372 140.92L375.972 141.72ZM363.172 141.72L362.568 142.517L362.576 142.523L362.584 142.529L363.172 141.72ZM361.092 90.2V89.2H359.999L360.096 90.2891L361.092 90.2ZM378.052 90.2L379.048 90.2891L379.145 89.2H378.052V90.2ZM374.932 125.08V126.08H375.847L375.928 125.169L374.932 125.08ZM364.212 125.08L363.216 125.169L363.297 126.08H364.212V125.08ZM360.532 135.72H361.532C361.532 133.281 362.3 131.644 363.692 130.6L363.092 129.8L362.492 129C360.471 130.516 359.532 132.826 359.532 135.72H360.532ZM363.092 129.8L363.68 130.609C365.241 129.474 367.185 128.88 369.572 128.88V127.88V126.88C366.839 126.88 364.463 127.566 362.504 128.991L363.092 129.8ZM369.572 127.88V128.88C371.96 128.88 373.871 129.474 375.372 130.6L375.972 129.8L376.572 129C374.66 127.566 372.304 126.88 369.572 126.88V127.88ZM375.972 129.8L375.4 130.62C376.82 131.61 377.612 133.229 377.612 135.72H378.612H379.612C379.612 132.771 378.644 130.443 376.544 128.98L375.972 129.8ZM378.612 135.72H377.612C377.612 138.209 376.821 139.866 375.384 140.911L375.972 141.72L376.56 142.529C378.643 141.014 379.612 138.671 379.612 135.72H378.612ZM375.972 141.72L375.372 140.92C373.871 142.046 371.96 142.64 369.572 142.64V143.64V144.64C372.304 144.64 374.66 143.954 376.572 142.52L375.972 141.72ZM369.572 143.64V142.64C367.243 142.64 365.324 142.049 363.76 140.911L363.172 141.72L362.584 142.529C364.54 143.951 366.887 144.64 369.572 144.64V143.64ZM363.172 141.72L363.776 140.923C362.318 139.819 361.532 138.146 361.532 135.72H360.532H359.532C359.532 138.627 360.506 140.955 362.568 142.517L363.172 141.72ZM361.092 90.2V91.2H378.052V90.2V89.2H361.092V90.2ZM378.052 90.2L377.056 90.1109L373.936 124.991L374.932 125.08L375.928 125.169L379.048 90.2891L378.052 90.2ZM374.932 125.08V124.08H364.212V125.08V126.08H374.932V125.08ZM364.212 125.08L365.208 124.991L362.088 90.1109L361.092 90.2L360.096 90.2891L363.216 125.169L364.212 125.08Z" fill="url(#paint0_linear_456_80721)" mask="url(#path-1-outside-1_456_80721)"/>
</g>
<defs>
<linearGradient id="paint0_linear_456_80721" x1="190.099" y1="2" x2="190.099" y2="146.006" gradientUnits="userSpaceOnUse">
<stop stop-color="#00CE44"/>
<stop offset="1" stop-color="white"/>
</linearGradient>
</defs>
</svg>
