<svg width="127" height="33" viewBox="0 0 127 33" fill="none" xmlns="http://www.w3.org/2000/svg">
<path d="M16.113 0.938477C7.46739 0.938477 0.460205 7.94566 0.460205 16.5913C0.460205 25.237 7.46739 32.2442 16.113 32.2442C24.7587 32.2442 31.7659 25.237 31.7659 16.5913C31.7659 7.94566 24.7587 0.938477 16.113 0.938477ZM18.8422 13.85C18.8422 13.1617 18.9804 12.5921 19.2543 12.1461C19.5306 11.6953 20.0057 11.3002 20.694 10.9512L21.0067 10.7936C21.5642 10.5124 21.7072 10.2676 21.7072 9.97921C21.7072 9.63504 21.4066 9.38539 20.9243 9.38539C20.3474 9.38539 19.916 9.68594 19.6154 10.2943L18.8398 9.5187C19.0095 9.15513 19.2834 8.8667 19.6469 8.63644C20.0154 8.40375 20.4225 8.29226 20.8685 8.29226C21.426 8.29226 21.9083 8.43526 22.3034 8.73581C22.7106 9.03636 22.9118 9.4484 22.9118 9.96952C22.9118 10.8033 22.4416 11.3099 21.5666 11.7607L21.0721 12.0104C20.5462 12.2721 20.2892 12.5121 20.2141 12.9314H22.8875V14.0391H18.8422V13.8524V13.85ZM16.2754 25.5448C11.3285 25.5448 7.32923 21.5383 7.32923 16.5986C7.32923 11.6589 11.3358 7.65722 16.2754 7.65722C16.8765 7.65722 17.4583 7.71297 18.0278 7.82689L16.2754 11.4892C13.459 11.4892 11.1661 13.7797 11.1661 16.5986C11.1661 19.4175 13.4566 21.7079 16.2754 21.7079C17.5455 21.7079 18.7113 21.2377 19.6009 20.4742L21.5423 23.8312C20.0638 24.9073 18.2436 25.5472 16.2779 25.5472L16.2754 25.5448ZM22.5361 22.978L20.3207 19.146H15.8949L18.1054 15.314H22.5312L24.7466 19.146L22.5361 22.978Z" fill="#505050"/>
<path d="M49.4304 24.3837L46.4346 17.7426C46.4031 17.6795 46.3546 17.6456 46.2916 17.6456H44.0617C43.9817 17.6456 43.943 17.6844 43.943 17.7644V24.3086C43.943 24.3886 43.9139 24.4565 43.8581 24.5122C43.8024 24.568 43.7345 24.597 43.6545 24.597H40.8502C40.7702 24.597 40.7023 24.5704 40.6466 24.5122C40.5909 24.4565 40.5618 24.3886 40.5618 24.3086V8.10557C40.5618 8.02558 40.5884 7.95772 40.6466 7.90197C40.7023 7.84622 40.7702 7.81714 40.8502 7.81714H47.7071C48.7299 7.81714 49.6292 8.02558 50.4048 8.44005C51.1804 8.85695 51.7791 9.44593 52.2032 10.2143C52.6274 10.9826 52.8383 11.8673 52.8383 12.8756C52.8383 13.9639 52.5668 14.8946 52.0239 15.6678C51.4809 16.4434 50.7223 16.9912 49.7455 17.3111C49.6655 17.3426 49.6413 17.3984 49.6728 17.4784L52.9328 24.2626C52.9643 24.3256 52.9813 24.3741 52.9813 24.4056C52.9813 24.534 52.894 24.597 52.7171 24.597H49.7673C49.6074 24.597 49.4959 24.5243 49.4304 24.3813V24.3837ZM43.9405 10.8396V14.9382C43.9405 15.0182 43.9793 15.057 44.0593 15.057H47.2005C47.8719 15.057 48.4197 14.8582 48.8439 14.4583C49.268 14.0584 49.4789 13.5397 49.4789 12.8998C49.4789 12.2599 49.268 11.7364 48.8439 11.3292C48.4197 10.922 47.8719 10.7184 47.2005 10.7184H44.0593C43.9793 10.7184 43.9405 10.7572 43.9405 10.8372V10.8396Z" fill="#505050"/>
<path d="M65.8999 19.2065C65.8829 19.398 65.7811 19.495 65.5872 19.495H58.1801C58.0832 19.495 58.0516 19.5362 58.0832 19.6137C58.1316 19.9337 58.2189 20.2536 58.3474 20.5735C58.7618 21.4679 59.6101 21.9163 60.8875 21.9163C61.9103 21.9018 62.7174 21.4849 63.3088 20.6705C63.3719 20.5735 63.4446 20.5275 63.5246 20.5275C63.573 20.5275 63.6288 20.559 63.6918 20.6244L65.4175 22.3259C65.4975 22.4059 65.5363 22.4786 65.5363 22.5417C65.5363 22.5732 65.5048 22.6386 65.4394 22.7331C64.911 23.3876 64.2323 23.8966 63.401 24.2553C62.5696 24.614 61.6582 24.7958 60.6693 24.7958C59.2951 24.7958 58.1316 24.4831 57.1815 23.8602C56.2314 23.2373 55.5479 22.3671 55.131 21.2474C54.7941 20.4475 54.6268 19.4004 54.6268 18.1061C54.6268 17.2287 54.7456 16.4531 54.9856 15.7817C55.3515 14.6474 55.9963 13.7433 56.9149 13.0719C57.8335 12.4005 58.9242 12.066 60.187 12.066C61.7843 12.066 63.0689 12.529 64.0336 13.4573C65.0007 14.3856 65.5872 15.6242 65.7957 17.173C65.8902 17.7813 65.9241 18.46 65.8902 19.2114L65.8999 19.2065ZM58.2286 16.4022C58.1656 16.6106 58.1098 16.8651 58.0613 17.1705C58.0613 17.2505 58.1001 17.2893 58.1801 17.2893H62.3272C62.4217 17.2893 62.4557 17.2505 62.4217 17.1705C62.3418 16.7076 62.303 16.4846 62.303 16.4992C62.16 16.0192 61.9079 15.6484 61.5468 15.3842C61.188 15.12 60.7445 14.9891 60.2161 14.9891C59.2102 14.9891 58.5461 15.4618 58.2262 16.4046L58.2286 16.4022Z" fill="#505050"/>
<path d="M70.4302 24.3596L66.5958 12.5873C66.5788 12.5558 66.5715 12.5146 66.5715 12.4685C66.5715 12.3255 66.6588 12.2528 66.8357 12.2528H69.9285C70.103 12.2528 70.2169 12.3328 70.263 12.4928L72.2287 19.7569C72.2456 19.8053 72.2674 19.8296 72.3014 19.8296C72.3353 19.8296 72.3571 19.8053 72.3741 19.7569L74.3398 12.4928C74.3883 12.3328 74.4998 12.2528 74.6743 12.2528L77.767 12.3013C77.864 12.3013 77.9343 12.3304 77.9827 12.3861C78.0312 12.4419 78.0385 12.5267 78.007 12.6382L74.1944 24.3621C74.1459 24.522 74.0417 24.602 73.8817 24.602H70.7404C70.5805 24.602 70.4763 24.522 70.4278 24.3621L70.4302 24.3596Z" fill="#505050"/>
<path d="M80.249 10.3475C79.8903 9.98875 79.7085 9.5355 79.7085 8.99257C79.7085 8.44964 79.8854 7.977 80.2369 7.62555C80.5883 7.2741 81.044 7.09717 81.6039 7.09717C82.1638 7.09717 82.6195 7.2741 82.9709 7.62555C83.3224 7.977 83.4993 8.43268 83.4993 8.99257C83.4993 9.55247 83.3199 9.98633 82.9588 10.3475C82.6001 10.7062 82.1468 10.8856 81.6039 10.8856C81.061 10.8856 80.6077 10.7062 80.249 10.3475ZM79.9606 24.5169C79.9048 24.4612 79.8757 24.3933 79.8757 24.3134V12.541C79.8757 12.461 79.9024 12.3931 79.9606 12.3374C80.0163 12.2817 80.0842 12.2526 80.1642 12.2526H82.9685C83.0485 12.2526 83.1163 12.2817 83.1721 12.3374C83.2278 12.3931 83.2569 12.461 83.2569 12.541V24.3134C83.2569 24.3933 83.2278 24.4612 83.1721 24.5169C83.1163 24.5727 83.0485 24.6018 82.9685 24.6018H80.1642C80.0842 24.6018 80.0163 24.5751 79.9606 24.5169Z" fill="#505050"/>
<path d="M96.8979 19.2065C96.881 19.398 96.7792 19.495 96.5853 19.495H89.1782C89.0812 19.495 89.0497 19.5362 89.0812 19.6137C89.1297 19.9337 89.2169 20.2536 89.3454 20.5735C89.7599 21.4679 90.6082 21.9163 91.8855 21.9163C92.9084 21.9018 93.7155 21.4849 94.3069 20.6705C94.3699 20.5735 94.4426 20.5275 94.5226 20.5275C94.5711 20.5275 94.6268 20.559 94.6899 20.6244L96.4156 22.3259C96.4956 22.4059 96.5344 22.4786 96.5344 22.5417C96.5344 22.5732 96.5029 22.6386 96.4374 22.7331C95.909 23.3876 95.2304 23.8966 94.399 24.2553C93.5676 24.614 92.6563 24.7958 91.6674 24.7958C90.2931 24.7958 89.1297 24.4831 88.1796 23.8602C87.2294 23.2373 86.5459 22.3671 86.129 21.2474C85.7921 20.4475 85.6249 19.4004 85.6249 18.1061C85.6249 17.2287 85.7436 16.4531 85.9836 15.7817C86.3496 14.6474 86.9943 13.7433 87.9129 13.0719C88.8316 12.4005 89.9223 12.066 91.1851 12.066C92.7823 12.066 94.0669 12.529 95.0316 13.4573C95.9987 14.3856 96.5853 15.6242 96.7937 17.173C96.8882 17.7813 96.9222 18.46 96.8882 19.2114L96.8979 19.2065ZM89.2266 16.4022C89.1636 16.6106 89.1079 16.8651 89.0594 17.1705C89.0594 17.2505 89.0982 17.2893 89.1782 17.2893H93.3253C93.4198 17.2893 93.4537 17.2505 93.4198 17.1705C93.3398 16.7076 93.301 16.4846 93.301 16.4992C93.158 16.0192 92.9059 15.6484 92.5448 15.3842C92.1861 15.12 91.7425 14.9891 91.2141 14.9891C90.2083 14.9891 89.5441 15.4618 89.2242 16.4046L89.2266 16.4022Z" fill="#505050"/>
<path d="M101.045 24.3595L97.5935 12.5872L97.5692 12.4902C97.5692 12.3302 97.6565 12.2502 97.8334 12.2502H100.735C100.912 12.2502 101.023 12.3302 101.072 12.4902L102.797 19.7301C102.812 19.7785 102.836 19.8028 102.87 19.8028C102.904 19.8028 102.926 19.7785 102.943 19.7301L104.741 12.4902C104.79 12.3302 104.901 12.2502 105.078 12.2502H107.596C107.771 12.2502 107.885 12.3302 107.931 12.4902L109.824 19.7543C109.838 19.8028 109.863 19.827 109.897 19.827C109.931 19.827 109.952 19.8028 109.969 19.7543L111.838 12.4902C111.887 12.3302 111.998 12.2502 112.175 12.2502L115.052 12.2987C115.147 12.2987 115.214 12.3278 115.256 12.3836C115.294 12.4393 115.307 12.5144 115.292 12.6114L111.792 24.3595C111.744 24.5195 111.639 24.5995 111.479 24.5995H108.578C108.401 24.5995 108.29 24.5195 108.244 24.3595L106.397 17.934C106.38 17.8856 106.358 17.8613 106.324 17.8613C106.29 17.8613 106.268 17.8856 106.251 17.934L104.62 24.3595C104.572 24.5195 104.46 24.5995 104.286 24.5995H101.384C101.207 24.5995 101.096 24.5195 101.05 24.3595H101.045Z" fill="#505050"/>
<path d="M118.329 24.3134C117.529 24.0104 116.911 23.5863 116.47 23.0434C116.031 22.5004 115.811 21.8848 115.811 21.1964V20.9565C115.811 20.8765 115.837 20.8086 115.896 20.7529C115.951 20.6971 116.019 20.668 116.099 20.668H118.76C118.84 20.668 118.908 20.6971 118.964 20.7529C119.02 20.8086 119.049 20.8765 119.049 20.9565V20.9807C119.049 21.3322 119.245 21.6327 119.635 21.8799C120.028 22.1272 120.518 22.2508 121.109 22.2508C121.652 22.2508 122.093 22.1441 122.428 21.926C122.762 21.7103 122.932 21.4437 122.932 21.1237C122.932 20.8353 122.789 20.6196 122.5 20.4766C122.212 20.3336 121.742 20.1809 121.085 20.0209C120.333 19.8294 119.742 19.6452 119.311 19.4707C118.288 19.1192 117.473 18.6878 116.865 18.1764C116.257 17.665 115.954 16.9306 115.954 15.9707C115.954 14.7879 116.412 13.8499 117.333 13.1543C118.251 12.4587 119.471 12.1121 120.988 12.1121C122.011 12.1121 122.905 12.2769 123.673 12.6041C124.439 12.9313 125.036 13.3918 125.46 13.9832C125.884 14.5746 126.095 15.246 126.095 15.9974C126.095 16.0774 126.068 16.1452 126.01 16.201C125.954 16.2567 125.886 16.2858 125.806 16.2858H123.242C123.162 16.2858 123.094 16.2592 123.038 16.201C122.983 16.1452 122.954 16.0774 122.954 15.9974C122.954 15.6459 122.774 15.3502 122.413 15.1103C122.054 14.8703 121.577 14.7516 120.985 14.7516C120.46 14.7516 120.026 14.8485 119.691 15.04C119.357 15.2315 119.187 15.4957 119.187 15.8302C119.187 16.1646 119.352 16.3901 119.679 16.55C120.006 16.71 120.554 16.8772 121.322 17.0542C121.497 17.1026 121.698 17.1535 121.921 17.2093C122.144 17.265 122.384 17.3329 122.641 17.4129C123.775 17.7474 124.67 18.1812 125.326 18.7072C125.981 19.2356 126.311 20.0015 126.311 21.0098C126.311 22.1926 125.843 23.1161 124.907 23.7778C123.972 24.4419 122.714 24.7715 121.131 24.7715C120.06 24.7715 119.124 24.6188 118.327 24.3158L118.329 24.3134Z" fill="#505050"/>
</svg>
