<svg width="128" height="33" viewBox="0 0 128 33" fill="none" xmlns="http://www.w3.org/2000/svg">
<path d="M33.5662 12.0306H46.4763V14.4428H41.4056V27.9792H38.6137V14.4428H33.5662V12.0306ZM45.9168 16.4316H48.3058V18.664H48.3492C48.4246 18.3509 48.5696 18.0465 48.7841 17.7479C48.9987 17.4493 49.2596 17.1796 49.5669 16.9332C49.8713 16.6868 50.2105 16.4896 50.5845 16.3418C50.9556 16.1939 51.3354 16.1185 51.7239 16.1185C52.0225 16.1185 52.2255 16.1272 52.3386 16.1417C52.4516 16.1562 52.5647 16.1707 52.6836 16.1852V18.6437C52.5038 18.6147 52.3212 18.5887 52.1356 18.5655C51.9501 18.5423 51.7674 18.5307 51.5877 18.5307C51.1557 18.5307 50.7498 18.6176 50.37 18.7887C49.9902 18.9598 49.6597 19.212 49.3756 19.5483C49.0914 19.8846 48.8682 20.2963 48.7058 20.7892C48.5406 21.282 48.4594 21.8474 48.4594 22.4881V27.9821H45.9139V16.4345L45.9168 16.4316ZM64.3732 27.9821H61.8712V26.373H61.8277C61.5146 26.9529 61.0507 27.4197 60.4302 27.7705C59.8127 28.1213 59.1836 28.2952 58.5429 28.2952C57.0237 28.2952 55.9249 27.9183 55.2494 27.1674C54.5709 26.4165 54.2317 25.28 54.2317 23.7608V16.4345H56.7772V23.5144C56.7772 24.5262 56.9715 25.2423 57.3571 25.6598C57.7456 26.0773 58.2877 26.2861 58.9864 26.2861C59.5228 26.2861 59.9693 26.2049 60.3259 26.0396C60.6825 25.8773 60.9724 25.6569 61.1956 25.3815C61.4189 25.1061 61.5783 24.7756 61.6769 24.3871C61.7726 23.9986 61.8219 23.584 61.8219 23.1375V16.4374H64.3674V27.985L64.3732 27.9821ZM68.7046 24.274C68.78 25.0191 69.0612 25.541 69.5541 25.8367C70.044 26.1353 70.6326 26.2832 71.3197 26.2832C71.5574 26.2832 71.8299 26.2658 72.1344 26.2281C72.4388 26.1904 72.7258 26.1208 72.9954 26.0164C73.2622 25.9121 73.4825 25.7584 73.6535 25.5584C73.8246 25.3583 73.9029 25.0945 73.8884 24.764C73.8739 24.4364 73.755 24.1696 73.5318 23.9609C73.3085 23.7521 73.0215 23.584 72.6707 23.4593C72.3199 23.3318 71.9227 23.2245 71.4762 23.1346C71.0298 23.0447 70.5746 22.9491 70.1136 22.8447C69.6381 22.7403 69.1801 22.6128 68.7394 22.4649C68.2987 22.317 67.9044 22.1141 67.5565 21.8619C67.2057 21.6096 66.9274 21.2849 66.7186 20.8906C66.5099 20.4963 66.4055 20.0093 66.4055 19.4265C66.4055 18.8003 66.5592 18.2755 66.8636 17.8523C67.168 17.429 67.5565 17.0869 68.0262 16.8259C68.4958 16.565 69.0177 16.3824 69.5889 16.278C70.1629 16.1736 70.708 16.1214 71.2298 16.1214C71.8242 16.1214 72.3953 16.1852 72.9374 16.3099C73.4796 16.4374 73.9725 16.6404 74.4102 16.9245C74.848 17.2086 75.2133 17.5768 75.5061 18.0291C75.7961 18.4843 75.9787 19.0322 76.0541 19.6701H73.3955C73.2767 19.0583 72.9983 18.6495 72.5576 18.4408C72.117 18.2321 71.6154 18.1277 71.0501 18.1277C70.8703 18.1277 70.6587 18.1422 70.4122 18.1712C70.1658 18.2002 69.9368 18.2581 69.7193 18.3393C69.5019 18.4205 69.3221 18.5394 69.1714 18.6959C69.0235 18.8525 68.9481 19.0583 68.9481 19.3106C68.9481 19.6237 69.0554 19.8759 69.2728 20.0702C69.4874 20.2644 69.7715 20.4239 70.1223 20.5514C70.4731 20.679 70.8703 20.7863 71.3168 20.8761C71.7633 20.966 72.2242 21.0617 72.7026 21.1661C73.1636 21.2704 73.6188 21.398 74.0652 21.5458C74.5117 21.6937 74.9089 21.8967 75.2597 22.1489C75.6105 22.4011 75.8917 22.7229 76.1092 23.1085C76.3237 23.497 76.4339 23.9725 76.4339 24.5378C76.4339 25.222 76.2773 25.8048 75.9642 26.2803C75.6511 26.7557 75.2452 27.1442 74.7465 27.4428C74.2479 27.7415 73.6941 27.956 73.0824 28.0894C72.4707 28.2227 71.8676 28.2894 71.2733 28.2894C70.5427 28.2894 69.8701 28.2082 69.2525 28.043C68.635 27.8806 68.0987 27.6284 67.6435 27.295C67.1883 26.9587 66.8317 26.5441 66.5708 26.0454C66.3098 25.5468 66.1736 24.9553 66.1562 24.2682H68.7017L68.7046 24.274ZM77.1036 16.4316H79.0258V12.97H81.5713V16.4316H83.8733V18.3306H81.5713V24.4972C81.5713 24.764 81.5829 24.9959 81.6061 25.1902C81.6293 25.3844 81.6815 25.5468 81.7626 25.683C81.8438 25.8164 81.9685 25.9179 82.1308 25.9845C82.2932 26.0512 82.5193 26.086 82.8006 26.086C82.9803 26.086 83.1572 26.0831 83.3369 26.0744C83.5167 26.0657 83.6935 26.0396 83.8733 25.9961V27.9618C83.5891 27.9908 83.3137 28.0198 83.047 28.0517C82.7803 28.0807 82.5019 28.0952 82.2207 28.0952C81.551 28.0952 81.0117 28.0314 80.6001 27.9038C80.1913 27.7763 79.8695 27.5907 79.6404 27.3443C79.4085 27.0978 79.2519 26.7905 79.1707 26.4165C79.0896 26.0454 79.0403 25.6192 79.0258 25.1438V18.3306H77.1036V16.4316ZM85.6592 16.4316H88.0713V17.9943H88.1148C88.4714 17.3246 88.9701 16.8433 89.6108 16.5534C90.2515 16.2635 90.9444 16.1185 91.6895 16.1185C92.597 16.1185 93.3914 16.278 94.0698 16.5998C94.7482 16.9216 95.3106 17.3594 95.7571 17.9189C96.2036 18.4785 96.5399 19.1279 96.7632 19.873C96.9864 20.6181 97.0995 21.4154 97.0995 22.262C97.0995 23.036 96.998 23.7898 96.798 24.5175C96.5979 25.2481 96.2906 25.8918 95.8818 26.4484C95.473 27.008 94.954 27.4544 94.3307 27.7878C93.7045 28.1242 92.9681 28.2894 92.1186 28.2894C91.7475 28.2894 91.3735 28.2546 91.0024 28.1879C90.6313 28.1213 90.2718 28.014 89.9297 27.8632C89.5876 27.7154 89.2716 27.524 88.9817 27.295C88.6917 27.063 88.4482 26.7934 88.2569 26.4803H88.2134V32.2439H85.6679V16.4287L85.6592 16.4316ZM94.5511 22.2185C94.5511 21.6966 94.4844 21.1921 94.351 20.6993C94.2177 20.2064 94.0147 19.7715 93.748 19.3917C93.4812 19.0119 93.1449 18.7075 92.7419 18.4756C92.339 18.2436 91.878 18.1306 91.3561 18.1306C90.2834 18.1306 89.4745 18.5017 88.9324 19.2468C88.3873 19.9919 88.1177 20.9805 88.1177 22.2185C88.1177 22.7983 88.1873 23.3405 88.3293 23.8391C88.4714 24.3378 88.6831 24.7669 88.9672 25.1235C89.2484 25.4801 89.5876 25.7642 89.9848 25.9729C90.3791 26.1817 90.8372 26.2861 91.359 26.2861C91.9389 26.2861 92.4317 26.1672 92.8318 25.9295C93.2348 25.6917 93.5653 25.3815 93.8263 25.0017C94.0872 24.6219 94.2727 24.1899 94.3858 23.7058C94.4989 23.2216 94.554 22.7258 94.554 22.2214L94.5511 22.2185ZM99.039 12.0306H101.585V14.4428H99.039V12.0306ZM99.039 16.4316H101.585V27.9792H99.039V16.4316ZM103.863 12.0306H106.409V27.9792H103.863V12.0306ZM114.205 28.2923C113.28 28.2923 112.459 28.1387 111.738 27.8342C111.016 27.5298 110.404 27.1094 109.905 26.5731C109.407 26.0367 109.027 25.396 108.766 24.6509C108.505 23.9058 108.374 23.0882 108.374 22.1924C108.374 21.2965 108.505 20.5021 108.766 19.757C109.027 19.0119 109.407 18.3712 109.905 17.8349C110.404 17.2985 111.016 16.8781 111.738 16.5737C112.459 16.2693 113.283 16.1156 114.205 16.1156C115.127 16.1156 115.95 16.2693 116.672 16.5737C117.394 16.8781 118.006 17.2985 118.504 17.8349C119.003 18.3712 119.383 19.0119 119.644 19.757C119.905 20.5021 120.035 21.3139 120.035 22.1924C120.035 23.0708 119.905 23.9058 119.644 24.6509C119.383 25.396 119.003 26.0367 118.504 26.5731C118.006 27.1094 117.394 27.5298 116.672 27.8342C115.95 28.1387 115.127 28.2923 114.205 28.2923ZM114.205 26.2832C114.77 26.2832 115.263 26.1643 115.681 25.9266C116.098 25.6888 116.44 25.3757 116.707 24.9872C116.974 24.5987 117.171 24.1638 117.298 23.6797C117.426 23.1955 117.49 22.6997 117.49 22.1953C117.49 21.6908 117.426 21.2124 117.298 20.7196C117.171 20.2296 116.974 19.7918 116.707 19.412C116.44 19.0322 116.095 18.722 115.681 18.4843C115.263 18.2465 114.773 18.1277 114.205 18.1277C113.637 18.1277 113.147 18.2465 112.732 18.4843C112.315 18.722 111.972 19.0322 111.706 19.412C111.439 19.7918 111.239 20.2267 111.114 20.7196C110.987 21.2124 110.926 21.7024 110.926 22.1953C110.926 22.6881 110.99 23.1984 111.114 23.6797C111.242 24.1638 111.439 24.5987 111.706 24.9872C111.972 25.3757 112.317 25.6859 112.732 25.9266C113.149 26.1643 113.639 26.2832 114.205 26.2832ZM120.772 16.4316H122.694V12.97H125.239V16.4316H127.541V18.3306H125.239V24.4972C125.239 24.764 125.251 24.9959 125.274 25.1902C125.297 25.3844 125.349 25.5468 125.431 25.683C125.512 25.8164 125.636 25.9179 125.799 25.9845C125.961 26.0512 126.187 26.086 126.468 26.086C126.648 26.086 126.825 26.0831 127.005 26.0744C127.185 26.0657 127.361 26.0396 127.541 25.9961V27.9618C127.257 27.9908 126.982 28.0198 126.715 28.0517C126.448 28.0807 126.17 28.0952 125.889 28.0952C125.219 28.0952 124.68 28.0314 124.268 27.9038C123.859 27.7763 123.537 27.5907 123.308 27.3443C123.076 27.0978 122.92 26.7905 122.839 26.4165C122.757 26.0454 122.708 25.6192 122.694 25.1438V18.3306H120.772V16.4316Z" fill="#505050"/>
<path d="M15.4055 23.1784L24.7584 29.977L21.9983 21.4736L15.4055 23.1784Z" fill="#505050"/>
<path d="M18.9279 12.0309L15.3271 0.938477L11.7233 12.028H0.0598145L9.49674 18.8846L5.89303 29.977L15.3271 23.1232L15.3792 23.1609L21.1777 18.9484L21.1574 18.8875L30.5914 12.0309H18.9279Z" fill="#505050"/>
</svg>
