<svg width="335" height="483" viewBox="0 0 335 483" fill="none" xmlns="http://www.w3.org/2000/svg">
<mask id="path-1-inside-1_3050_3382" fill="white">
<path d="M135 0C151.569 3.23016e-06 165 13.4315 165 30V31H287C313.51 31 335 52.4903 335 79V435C335 461.51 313.51 483 287 483H48C21.4904 483 3.39247e-05 461.51 0 435V30C0 13.4315 13.4315 0 30 0H135Z"/>
</mask>
<path d="M135 0V-4V0ZM165 31H161V35H165V31ZM287 31V27V31ZM335 435H339H335ZM287 483V487V483ZM48 483V487V483ZM0 435H-4H0ZM135 0V4C149.359 4 161 15.6406 161 30H165H169C169 11.2223 153.778 -4 135 -4V0ZM165 30H161V31H165H169V30H165ZM165 31V35H287V31V27H165V31ZM287 31V35C311.301 35 331 54.6995 331 79H335H339C339 50.2812 315.719 27 287 27V31ZM335 79H331V435H335H339V79H335ZM335 435H331C331 459.301 311.301 479 287 479V483V487C315.719 487 339 463.719 339 435H335ZM287 483V479H48V483V487H287V483ZM48 483V479C23.6995 479 4.00003 459.301 4 435H0H-4C-3.99996 463.719 19.2812 487 48 487V483ZM0 435H4V30H0H-4V435H0ZM0 30H4C4 15.6406 15.6406 4 30 4V0V-4C11.2223 -4 -4 11.2223 -4 30H0ZM30 0V4H135V0V-4H30V0Z" fill="#3C3C3C" mask="url(#path-1-inside-1_3050_3382)"/>
</svg>
